<svg xmlns="http://www.w3.org/2000/svg" xmlns:xlink="http://www.w3.org/1999/xlink" width="500" zoomAndPan="magnify" viewBox="0 0 375 374.999991" height="500" preserveAspectRatio="xMidYMid meet" version="1.0"><defs><g/><clipPath id="4ff50cc324"><path d="M 63.976562 206.894531 L 305.714844 206.894531 L 305.714844 234.582031 L 63.976562 234.582031 Z M 63.976562 206.894531 " clip-rule="nonzero"/></clipPath><clipPath id="eef56b25ac"><path d="M 77.824219 206.894531 L 291.792969 206.894531 C 295.464844 206.894531 298.984375 208.351562 301.582031 210.949219 C 304.179688 213.546875 305.636719 217.066406 305.636719 220.738281 C 305.636719 224.410156 304.179688 227.929688 301.582031 230.527344 C 298.984375 233.125 295.464844 234.582031 291.792969 234.582031 L 77.824219 234.582031 C 74.152344 234.582031 70.628906 233.125 68.03125 230.527344 C 65.4375 227.929688 63.976562 224.410156 63.976562 220.738281 C 63.976562 217.066406 65.4375 213.546875 68.03125 210.949219 C 70.628906 208.351562 74.152344 206.894531 77.824219 206.894531 Z M 77.824219 206.894531 " clip-rule="nonzero"/></clipPath></defs><path stroke-linecap="butt" transform="matrix(0.75, 0, 0, 0.75, 45.831563, -26.974735)" fill="none" stroke-linejoin="miter" d="M 269.875642 278.091332 C 267.735017 279.87779 264.750642 281.882999 260.917308 284.106957 C 257.083974 286.336124 252.610016 288.429874 247.485015 290.393416 C 242.360015 292.351749 236.724598 293.997583 230.573556 295.336125 C 224.427722 296.674666 218.011055 297.341333 211.328763 297.341333 C 212.485013 295.200708 213.443347 293.263208 214.203763 291.528833 C 214.958972 289.789249 215.583972 288.075707 216.073555 286.382999 C 216.563138 284.690291 216.896472 282.992374 217.073555 281.299665 C 217.255847 279.606957 217.344388 277.737165 217.344388 275.685082 C 217.344388 273.372581 217.208972 269.336123 216.943347 263.591331 C 216.672513 257.84133 216.360013 251.09133 216.005847 243.341329 C 215.65168 235.586121 215.250638 227.164245 214.802722 218.075703 C 214.354805 208.987161 213.93293 199.98716 213.531888 191.075701 C 213.130847 182.164242 212.77668 173.7007 212.46418 165.679866 C 212.15168 157.659032 211.953763 150.799657 211.860013 145.096531 C 207.141263 153.38299 202.485013 161.023616 197.896471 168.018408 C 193.30272 175.0132 188.80272 181.721534 184.391261 188.138201 C 179.985011 194.54966 175.703761 200.836118 171.563135 206.981952 C 167.417302 213.132994 163.406885 219.502786 159.531885 226.096537 C 155.656884 232.690287 151.979801 239.664246 148.505842 247.018413 C 145.026675 254.367372 141.776675 262.455914 138.745425 271.278831 L 115.490215 297.341333 C 115.667298 294.221541 115.089173 290.455916 113.750632 286.044457 C 112.41209 281.638207 110.854798 277.382998 109.073548 273.28404 C 107.021465 268.471539 104.703756 263.523622 102.120423 258.445497 C 99.094381 252.919455 95.037089 245.346538 89.958963 235.721537 C 85.50063 227.612162 79.667296 216.784036 72.448546 203.242368 C 65.229795 189.695493 56.229795 172.851741 45.448544 152.716324 C 44.823544 163.586116 44.219377 174.591325 43.641252 185.731951 C 43.063127 196.867368 42.281877 207.898619 41.30271 218.810078 C 40.323544 229.726745 38.964168 240.419454 37.224585 250.893413 C 35.49021 261.362164 33.193335 271.278831 30.344376 280.632999 C 31.854793 281.169457 33.55271 281.570499 35.422502 281.836124 C 37.292293 282.101749 39.162085 282.237165 41.037085 282.237165 C 42.995419 282.237165 44.86521 282.148624 46.651669 281.97154 C 48.432919 281.789249 50.037086 281.612165 51.464169 281.435082 C 53.068336 281.169457 54.625628 280.898624 56.141253 280.632999 C 52.396461 283.487165 48.943336 285.935082 45.781877 287.987166 C 42.61521 290.034041 39.36521 291.773624 36.02146 293.195499 C 32.682918 294.622583 29.005834 295.669458 24.995418 296.341333 C 20.985001 297.008 16.219375 297.341333 10.693333 297.341333 C 13.188125 294.935083 15.349584 290.945499 17.177709 285.377791 C 19.000625 279.810082 20.563126 273.169456 21.854792 265.461123 C 23.146459 257.752789 24.240209 249.221538 25.130834 239.867371 C 26.021459 230.507995 26.802709 220.903828 27.469376 211.060077 C 28.136043 201.211118 28.672501 191.341326 29.073543 181.4507 C 29.474584 171.560075 29.89646 162.179866 30.344376 153.315282 C 30.787085 144.450698 31.235001 136.341322 31.67771 128.987155 C 32.125626 121.638196 32.703751 115.596529 33.417293 110.877779 L 52.797503 89.487153 C 52.083961 90.914236 51.729794 92.518403 51.729794 94.299653 C 51.729794 96.086111 51.906878 97.77882 52.266253 99.382987 C 52.620419 101.252778 53.156878 103.169445 53.865211 105.127779 C 54.313128 106.289237 55.516253 108.825696 57.474586 112.747571 C 59.438128 116.669446 61.886045 121.50278 64.828753 127.25278 C 67.771462 132.997572 71.130837 139.502781 74.922504 146.768406 C 78.708963 154.028824 82.651671 161.601741 86.75063 169.487158 C 90.849589 177.377783 94.990214 185.351742 99.182922 193.414243 C 103.370423 201.481952 107.38084 209.211119 111.208965 216.606953 C 115.042298 224.002787 118.563132 230.888204 121.771466 237.257996 C 124.979799 243.627788 127.651674 249.044455 129.792299 253.49758 C 137.365217 241.737163 145.052717 229.841329 152.849593 217.810078 C 160.646468 205.778827 168.130844 193.794451 175.302719 181.851742 C 182.479803 169.914241 189.162095 158.039241 195.354804 146.231948 C 201.547512 134.424656 206.870429 122.81528 211.328763 111.409029 L 239.266265 89.487153 C 238.729807 105.976737 238.59439 121.768405 238.865223 136.872572 C 239.130848 151.97674 239.552723 166.705908 240.130848 181.049659 C 240.714182 195.398618 241.271473 209.476744 241.802723 223.289245 C 242.339182 237.101746 242.604807 250.914247 242.604807 264.726748 C 242.604807 268.737164 242.360015 272.013206 241.870432 274.549665 C 241.380848 277.091332 240.511057 278.851748 239.266265 279.830915 C 243.365224 280.367374 247.552724 280.632999 251.828766 280.632999 C 255.391266 280.632999 258.75585 280.435082 261.922516 280.03404 C 265.083975 279.632999 267.735017 278.987165 269.875642 278.091332 Z M 269.875642 278.091332 " stroke="#ffffff" stroke-width="20.531925" stroke-opacity="1" stroke-miterlimit="4"/><g fill="#000000" fill-opacity="1"><g transform="translate(45.831563, 193.52525)"><g><path d="M 202.40625 -11.9375 C 200.800781 -10.59375 198.5625 -9.082031 195.6875 -7.40625 C 192.8125 -5.738281 189.453125 -4.171875 185.609375 -2.703125 C 181.765625 -1.234375 177.535156 0 172.921875 1 C 168.316406 2 163.507812 2.5 158.5 2.5 C 159.363281 0.894531 160.078125 -0.554688 160.640625 -1.859375 C 161.210938 -3.160156 161.679688 -4.445312 162.046875 -5.71875 C 162.421875 -6.988281 162.671875 -8.253906 162.796875 -9.515625 C 162.929688 -10.785156 163 -12.191406 163 -13.734375 C 163 -15.472656 162.898438 -18.492188 162.703125 -22.796875 C 162.503906 -27.109375 162.269531 -32.171875 162 -37.984375 C 161.738281 -43.804688 161.4375 -50.125 161.09375 -56.9375 C 160.757812 -63.757812 160.441406 -70.507812 160.140625 -77.1875 C 159.847656 -83.875 159.582031 -90.222656 159.34375 -96.234375 C 159.113281 -102.253906 158.960938 -107.398438 158.890625 -111.671875 C 155.347656 -105.460938 151.851562 -99.734375 148.40625 -94.484375 C 144.96875 -89.234375 141.59375 -84.203125 138.28125 -79.390625 C 134.976562 -74.585938 131.773438 -69.878906 128.671875 -65.265625 C 125.566406 -60.648438 122.554688 -55.867188 119.640625 -50.921875 C 116.734375 -45.984375 113.976562 -40.753906 111.375 -35.234375 C 108.769531 -29.722656 106.332031 -23.660156 104.0625 -17.046875 L 86.609375 2.5 C 86.742188 0.164062 86.3125 -2.648438 85.3125 -5.953125 C 84.3125 -9.265625 83.140625 -12.457031 81.796875 -15.53125 C 80.265625 -19.144531 78.53125 -22.859375 76.59375 -26.671875 C 74.320312 -30.804688 71.28125 -36.484375 67.46875 -43.703125 C 64.125 -49.785156 59.742188 -57.90625 54.328125 -68.0625 C 48.921875 -78.226562 42.171875 -90.863281 34.078125 -105.96875 C 33.617188 -97.8125 33.171875 -89.554688 32.734375 -81.203125 C 32.296875 -72.847656 31.707031 -64.578125 30.96875 -56.390625 C 30.238281 -48.203125 29.222656 -40.179688 27.921875 -32.328125 C 26.617188 -24.472656 24.894531 -17.039062 22.75 -10.03125 C 23.894531 -9.625 25.164062 -9.320312 26.5625 -9.125 C 27.96875 -8.925781 29.375 -8.828125 30.78125 -8.828125 C 32.25 -8.828125 33.648438 -8.890625 34.984375 -9.015625 C 36.328125 -9.148438 37.53125 -9.285156 38.59375 -9.421875 C 39.800781 -9.617188 40.972656 -9.820312 42.109375 -10.03125 C 39.296875 -7.882812 36.703125 -6.039062 34.328125 -4.5 C 31.960938 -2.96875 29.523438 -1.664062 27.015625 -0.59375 C 24.515625 0.46875 21.757812 1.25 18.75 1.75 C 15.738281 2.25 12.160156 2.5 8.015625 2.5 C 9.890625 0.695312 11.507812 -2.289062 12.875 -6.46875 C 14.25 -10.644531 15.421875 -15.625 16.390625 -21.40625 C 17.359375 -27.1875 18.175781 -33.582031 18.84375 -40.59375 C 19.507812 -47.613281 20.09375 -54.816406 20.59375 -62.203125 C 21.101562 -69.585938 21.503906 -76.988281 21.796875 -84.40625 C 22.097656 -91.820312 22.414062 -98.851562 22.75 -105.5 C 23.09375 -112.15625 23.429688 -118.238281 23.765625 -123.75 C 24.097656 -129.269531 24.53125 -133.800781 25.0625 -137.34375 L 39.59375 -153.390625 C 39.0625 -152.316406 38.796875 -151.109375 38.796875 -149.765625 C 38.796875 -148.429688 38.929688 -147.164062 39.203125 -145.96875 C 39.460938 -144.5625 39.863281 -143.125 40.40625 -141.65625 C 40.738281 -140.78125 41.640625 -138.875 43.109375 -135.9375 C 44.578125 -133 46.410156 -129.375 48.609375 -125.0625 C 50.816406 -120.75 53.34375 -115.867188 56.1875 -110.421875 C 59.03125 -104.972656 61.988281 -99.289062 65.0625 -93.375 C 68.132812 -87.46875 71.238281 -81.488281 74.375 -75.4375 C 77.519531 -69.382812 80.53125 -63.582031 83.40625 -58.03125 C 86.28125 -52.488281 88.921875 -47.328125 91.328125 -42.546875 C 93.734375 -37.773438 95.738281 -33.71875 97.34375 -30.375 C 103.019531 -39.195312 108.78125 -48.117188 114.625 -57.140625 C 120.476562 -66.160156 126.09375 -75.148438 131.46875 -84.109375 C 136.851562 -93.066406 141.867188 -101.972656 146.515625 -110.828125 C 151.160156 -119.679688 155.15625 -128.382812 158.5 -136.9375 L 179.453125 -153.390625 C 179.046875 -141.023438 178.941406 -129.175781 179.140625 -117.84375 C 179.347656 -106.519531 179.664062 -95.476562 180.09375 -84.71875 C 180.53125 -73.957031 180.945312 -63.394531 181.34375 -53.03125 C 181.75 -42.675781 181.953125 -32.316406 181.953125 -21.953125 C 181.953125 -18.941406 181.765625 -16.484375 181.390625 -14.578125 C 181.023438 -12.679688 180.378906 -11.363281 179.453125 -10.625 C 182.523438 -10.226562 185.664062 -10.03125 188.875 -10.03125 C 191.539062 -10.03125 194.0625 -10.175781 196.4375 -10.46875 C 198.8125 -10.769531 200.800781 -11.257812 202.40625 -11.9375 Z M 202.40625 -11.9375 "/></g></g></g><path stroke-linecap="butt" transform="matrix(0.638842, 0, 0, 0.638842, 148.026309, 97.551058)" fill="none" stroke-linejoin="miter" d="M 86.54731 107.041311 C 81.857431 110.135286 77.638374 112.709521 73.896255 114.751789 C 70.154135 116.800172 66.583223 118.524482 63.189634 119.918605 C 62.987853 128.503468 62.792187 136.464644 62.590406 143.802134 C 62.388625 151.139623 62.217417 158.055207 62.064553 164.542771 C 61.917803 171.030335 61.789397 177.169368 61.691564 182.95987 C 61.59373 188.750372 61.489783 194.339094 61.391949 199.732149 C 66.681056 198.631525 72.171945 198.081213 77.864614 198.081213 C 83.355502 198.081213 89.714659 198.154588 96.954316 198.307453 C 104.193972 198.454202 111.70267 198.655983 119.492638 198.906681 C 127.276492 199.157378 135.109262 199.353045 142.997063 199.505909 C 150.884865 199.652659 158.222354 199.732149 165.009532 199.732149 L 172.047408 199.732149 L 172.047408 125.158796 C 168.953433 125.45841 165.186855 125.837513 160.741559 126.283877 C 156.302378 126.730241 151.282312 127.353928 145.693591 128.154937 C 151.086646 123.764673 155.923274 120.444458 160.215706 118.20041 C 164.508137 115.950246 168.20134 114.280967 171.295315 113.180344 C 174.890685 111.981887 178.088607 111.284826 180.882968 111.083045 C 184.472223 111.083045 188.367207 110.985211 192.561806 110.78343 C 196.756404 110.587764 200.847054 110.312608 204.839872 109.964077 C 208.832689 109.615547 212.452517 109.187526 215.693242 108.692246 C 218.940081 108.190851 221.361452 107.640539 222.957356 107.041311 C 218.267478 110.135286 214.048421 112.709521 210.306301 114.751789 C 206.564182 116.800172 202.99327 118.524482 199.599681 119.918605 C 199.098286 138.085006 198.700839 154.306973 198.401225 168.584505 C 198.10161 182.862037 197.826454 195.513092 197.575757 206.543785 C 197.325059 217.574477 197.129393 227.131558 196.976529 235.215025 C 196.829779 243.304608 196.701373 250.189619 196.60354 255.882288 C 196.303925 269.254863 196.206092 278.341121 196.303925 283.134947 C 196.206092 286.82815 195.704697 290.472437 194.805855 294.061692 C 194.01096 297.155667 192.812503 300.475881 191.210485 304.022334 C 189.614581 307.562673 187.321615 310.785054 184.325474 313.677248 C 186.123159 313.879029 187.871927 314.00132 189.565664 314.050237 C 191.265516 314.105268 192.959253 314.129726 194.659105 314.129726 C 199.348984 314.129726 203.56804 313.903487 207.31016 313.457123 C 211.05228 313.004645 214.299119 312.527708 217.044563 312.032427 C 219.790007 311.531032 221.960681 311.035752 223.556585 310.534357 C 225.152489 310.032961 226.149164 309.684431 226.552726 309.488764 C 221.257505 313.07802 216.86724 316.171994 213.375818 318.770689 C 209.878281 321.363268 206.73539 323.485026 203.941029 325.135961 C 201.146669 326.780781 198.425683 328.003696 195.778072 328.804706 C 193.136576 329.5996 190.018143 329.997048 186.422773 329.997048 C 181.628946 329.997048 177.562754 329.801381 174.218082 329.403934 C 170.873409 329.000372 167.504279 328.804706 164.11069 328.804706 C 162.416952 328.804706 160.692642 328.878081 158.943874 329.02483 C 157.20122 329.177695 155.226213 329.501767 153.03108 329.997048 C 156.222888 328.505092 159.017249 326.927531 161.414162 325.282711 C 163.811075 323.63789 165.786083 321.33881 167.33307 318.3977 C 168.880058 315.450475 170.047942 311.55549 170.848951 306.718862 C 171.64996 301.876119 172.047408 295.413013 172.047408 287.323431 L 172.047408 209.460437 C 169.149099 210.059665 165.908375 210.56106 162.313005 210.958508 C 158.717635 211.355955 154.578068 211.557736 149.888189 211.557736 C 143.394511 211.557736 135.812438 211.355955 127.123627 210.958508 C 118.440931 210.56106 108.957226 210.359279 98.678626 210.359279 C 92.588509 210.359279 86.425018 210.512144 80.182037 210.811758 C 73.945171 211.111372 67.579899 211.606653 61.092335 212.309829 C 60.694888 226.978693 60.419732 238.908229 60.266868 248.09232 C 60.120118 257.276411 59.991712 264.467151 59.893879 269.658425 C 59.796045 275.748541 59.747129 280.236639 59.747129 283.134947 C 59.643181 286.82815 59.1479 290.472437 58.249058 294.061692 C 57.448049 297.155667 56.249592 300.475881 54.653688 304.022334 C 53.057784 307.562673 50.758704 310.785054 47.768677 313.677248 C 49.664195 313.879029 51.46188 314.00132 53.155617 314.050237 C 54.855469 314.105268 56.549206 314.129726 58.249058 314.129726 C 62.938937 314.129726 67.157993 313.903487 70.900113 313.457123 C 74.642233 313.004645 77.889072 312.527708 80.634516 312.032427 C 83.37996 311.531032 85.550634 311.035752 87.146538 310.534357 C 88.742442 310.032961 89.739118 309.684431 90.14268 309.488764 C 84.853572 313.07802 80.457193 316.171994 76.965771 318.770689 C 73.468234 321.363268 70.325343 323.485026 67.530982 325.135961 C 64.736622 326.780781 62.015636 328.003696 59.368025 328.804706 C 56.726529 329.5996 53.608096 329.997048 50.012726 329.997048 C 45.218899 329.997048 41.128249 329.801381 37.73466 329.403934 C 34.341071 329.000372 30.947482 328.804706 27.553893 328.804706 C 25.854041 328.804706 24.129731 328.878081 22.387077 329.02483 C 20.638309 329.177695 18.718333 329.501767 16.621033 329.997048 C 19.415394 327.606249 21.959057 324.983097 24.258137 322.139819 C 26.551103 319.296542 28.52611 315.823464 30.170931 311.732813 C 31.821866 307.642163 33.093698 302.750503 33.99254 297.057834 C 34.891383 291.365165 35.337747 284.480154 35.337747 276.396686 L 35.337747 216.797926 C 33.044781 217.299322 30.794618 217.849633 28.599485 218.448862 C 26.404353 219.04809 24.209221 219.745151 22.014088 220.540046 C 24.209221 218.546695 26.404353 216.700093 28.599485 215.000242 C 30.794618 213.306504 33.044781 211.655569 35.337747 210.059665 L 35.337747 125.158796 C 32.243772 125.45841 28.501652 125.837513 24.105273 126.283877 C 19.715008 126.730241 14.725515 127.353928 9.136794 128.154937 C 14.523734 123.764673 19.390936 120.444458 23.732284 118.20041 C 28.073632 115.950246 31.791293 114.280967 34.891383 113.180344 C 38.480638 111.981887 41.678561 111.284826 44.472921 111.083045 C 47.964343 111.083045 51.834869 110.985211 56.078384 110.78343 C 60.315784 110.587764 64.412549 110.312608 68.35645 109.964077 C 72.300351 109.615547 75.914064 109.187526 79.20982 108.692246 C 82.505576 108.190851 84.951406 107.640539 86.54731 107.041311 Z M 90.14268 309.488764 L 90.14268 309.3359 C 90.240513 309.238067 90.338346 309.18915 90.442294 309.18915 Z M 226.552726 309.488764 L 226.552726 309.3359 L 226.699476 309.3359 C 226.803424 309.238067 226.901257 309.18915 226.99909 309.18915 Z M 226.552726 309.488764 " stroke="#ffffff" stroke-width="23.000025" stroke-opacity="1" stroke-miterlimit="4"/><g fill="#000000" fill-opacity="1"><g transform="translate(148.026309, 308.369074)"><g><path d="M 55.296875 -142.4375 C 52.296875 -140.457031 49.597656 -138.8125 47.203125 -137.5 C 44.816406 -136.195312 42.539062 -135.097656 40.375 -134.203125 C 40.238281 -128.722656 40.109375 -123.640625 39.984375 -118.953125 C 39.859375 -114.265625 39.742188 -109.847656 39.640625 -105.703125 C 39.546875 -101.554688 39.46875 -97.632812 39.40625 -93.9375 C 39.34375 -90.238281 39.28125 -86.664062 39.21875 -83.21875 C 42.601562 -83.925781 46.109375 -84.28125 49.734375 -84.28125 C 53.242188 -84.28125 57.3125 -84.226562 61.9375 -84.125 C 66.5625 -84.03125 71.359375 -83.90625 76.328125 -83.75 C 81.304688 -83.59375 86.3125 -83.460938 91.34375 -83.359375 C 96.382812 -83.265625 101.078125 -83.21875 105.421875 -83.21875 L 109.90625 -83.21875 L 109.90625 -130.859375 C 107.925781 -130.671875 105.519531 -130.429688 102.6875 -130.140625 C 99.851562 -129.859375 96.648438 -129.460938 93.078125 -128.953125 C 96.515625 -131.753906 99.601562 -133.867188 102.34375 -135.296875 C 105.09375 -136.734375 107.457031 -137.804688 109.4375 -138.515625 C 111.726562 -139.273438 113.765625 -139.71875 115.546875 -139.84375 C 117.847656 -139.84375 120.335938 -139.90625 123.015625 -140.03125 C 125.691406 -140.164062 128.304688 -140.34375 130.859375 -140.5625 C 133.410156 -140.789062 135.722656 -141.0625 137.796875 -141.375 C 139.867188 -141.695312 141.414062 -142.050781 142.4375 -142.4375 C 139.4375 -140.457031 136.738281 -138.8125 134.34375 -137.5 C 131.957031 -136.195312 129.679688 -135.097656 127.515625 -134.203125 C 127.191406 -122.597656 126.929688 -112.234375 126.734375 -103.109375 C 126.546875 -93.992188 126.375 -85.910156 126.21875 -78.859375 C 126.0625 -71.816406 125.929688 -65.710938 125.828125 -60.546875 C 125.734375 -55.378906 125.65625 -50.976562 125.59375 -47.34375 C 125.40625 -38.800781 125.34375 -33 125.40625 -29.9375 C 125.34375 -27.582031 125.023438 -25.253906 124.453125 -22.953125 C 123.941406 -20.984375 123.175781 -18.863281 122.15625 -16.59375 C 121.132812 -14.332031 119.664062 -12.273438 117.75 -10.421875 C 118.894531 -10.296875 120.007812 -10.21875 121.09375 -10.1875 C 122.1875 -10.15625 123.273438 -10.140625 124.359375 -10.140625 C 127.347656 -10.140625 130.039062 -10.28125 132.4375 -10.5625 C 134.832031 -10.851562 136.90625 -11.15625 138.65625 -11.46875 C 140.40625 -11.789062 141.789062 -12.109375 142.8125 -12.421875 C 143.832031 -12.742188 144.472656 -12.972656 144.734375 -13.109375 C 141.347656 -10.804688 138.539062 -8.828125 136.3125 -7.171875 C 134.082031 -5.515625 132.070312 -4.160156 130.28125 -3.109375 C 128.5 -2.054688 126.757812 -1.273438 125.0625 -0.765625 C 123.375 -0.253906 121.382812 0 119.09375 0 C 116.03125 0 113.429688 -0.125 111.296875 -0.375 C 109.160156 -0.632812 107.007812 -0.765625 104.84375 -0.765625 C 103.757812 -0.765625 102.65625 -0.71875 101.53125 -0.625 C 100.414062 -0.53125 99.160156 -0.320312 97.765625 0 C 99.804688 -0.957031 101.59375 -1.960938 103.125 -3.015625 C 104.65625 -4.066406 105.910156 -5.53125 106.890625 -7.40625 C 107.878906 -9.289062 108.628906 -11.78125 109.140625 -14.875 C 109.648438 -17.96875 109.90625 -22.097656 109.90625 -27.265625 L 109.90625 -77 C 108.0625 -76.625 105.988281 -76.304688 103.6875 -76.046875 C 101.394531 -75.796875 98.75 -75.671875 95.75 -75.671875 C 91.601562 -75.671875 86.753906 -75.796875 81.203125 -76.046875 C 75.660156 -76.304688 69.601562 -76.4375 63.03125 -76.4375 C 59.144531 -76.4375 55.207031 -76.335938 51.21875 -76.140625 C 47.238281 -75.953125 43.175781 -75.632812 39.03125 -75.1875 C 38.769531 -65.8125 38.59375 -58.191406 38.5 -52.328125 C 38.40625 -46.460938 38.328125 -41.867188 38.265625 -38.546875 C 38.203125 -34.660156 38.171875 -31.789062 38.171875 -29.9375 C 38.109375 -27.582031 37.785156 -25.253906 37.203125 -22.953125 C 36.703125 -20.984375 35.941406 -18.863281 34.921875 -16.59375 C 33.898438 -14.332031 32.429688 -12.273438 30.515625 -10.421875 C 31.722656 -10.296875 32.867188 -10.21875 33.953125 -10.1875 C 35.035156 -10.15625 36.117188 -10.140625 37.203125 -10.140625 C 40.203125 -10.140625 42.894531 -10.28125 45.28125 -10.5625 C 47.675781 -10.851562 49.75 -11.15625 51.5 -11.46875 C 53.257812 -11.789062 54.648438 -12.109375 55.671875 -12.421875 C 56.691406 -12.742188 57.328125 -12.972656 57.578125 -13.109375 C 54.203125 -10.804688 51.394531 -8.828125 49.15625 -7.171875 C 46.925781 -5.515625 44.921875 -4.160156 43.140625 -3.109375 C 41.359375 -2.054688 39.617188 -1.273438 37.921875 -0.765625 C 36.234375 -0.253906 34.242188 0 31.953125 0 C 28.890625 0 26.273438 -0.125 24.109375 -0.375 C 21.941406 -0.632812 19.769531 -0.765625 17.59375 -0.765625 C 16.507812 -0.765625 15.410156 -0.71875 14.296875 -0.625 C 13.179688 -0.53125 11.957031 -0.320312 10.625 0 C 12.40625 -1.53125 14.03125 -3.203125 15.5 -5.015625 C 16.96875 -6.835938 18.226562 -9.054688 19.28125 -11.671875 C 20.332031 -14.285156 21.144531 -17.410156 21.71875 -21.046875 C 22.289062 -24.679688 22.578125 -29.082031 22.578125 -34.25 L 22.578125 -72.3125 C 21.109375 -72 19.671875 -71.648438 18.265625 -71.265625 C 16.867188 -70.878906 15.46875 -70.429688 14.0625 -69.921875 C 15.46875 -71.203125 16.867188 -72.382812 18.265625 -73.46875 C 19.671875 -74.550781 21.109375 -75.601562 22.578125 -76.625 L 22.578125 -130.859375 C 20.597656 -130.671875 18.203125 -130.429688 15.390625 -130.140625 C 12.585938 -129.859375 9.398438 -129.460938 5.828125 -128.953125 C 9.273438 -131.753906 12.382812 -133.867188 15.15625 -135.296875 C 17.9375 -136.734375 20.3125 -137.804688 22.28125 -138.515625 C 24.582031 -139.273438 26.625 -139.71875 28.40625 -139.84375 C 30.644531 -139.84375 33.117188 -139.90625 35.828125 -140.03125 C 38.535156 -140.164062 41.148438 -140.34375 43.671875 -140.5625 C 46.191406 -140.789062 48.503906 -141.0625 50.609375 -141.375 C 52.710938 -141.695312 54.273438 -142.050781 55.296875 -142.4375 Z M 57.578125 -13.109375 L 57.578125 -13.203125 C 57.648438 -13.265625 57.71875 -13.296875 57.78125 -13.296875 Z M 144.734375 -13.109375 L 144.734375 -13.203125 L 144.828125 -13.203125 C 144.890625 -13.265625 144.953125 -13.296875 145.015625 -13.296875 Z M 144.734375 -13.109375 "/></g></g></g><g clip-path="url(#4ff50cc324)"><g clip-path="url(#eef56b25ac)"><path fill="#ffffff" d="M 63.976562 206.894531 L 305.605469 206.894531 L 305.605469 234.582031 L 63.976562 234.582031 Z M 63.976562 206.894531 " fill-opacity="1" fill-rule="nonzero"/></g></g><g fill="#000000" fill-opacity="1"><g transform="translate(45.295712, 227.709646)"><g><path d="M 21.546875 -1.265625 C 21.378906 -1.128906 21.140625 -0.96875 20.828125 -0.78125 C 20.523438 -0.601562 20.164062 -0.4375 19.75 -0.28125 C 19.34375 -0.125 18.894531 0.00390625 18.40625 0.109375 C 17.914062 0.210938 17.40625 0.265625 16.875 0.265625 C 16.96875 0.0976562 17.039062 -0.0507812 17.09375 -0.1875 C 17.15625 -0.332031 17.207031 -0.472656 17.25 -0.609375 C 17.289062 -0.742188 17.316406 -0.878906 17.328125 -1.015625 C 17.347656 -1.148438 17.359375 -1.300781 17.359375 -1.46875 C 17.359375 -1.644531 17.347656 -1.960938 17.328125 -2.421875 C 17.304688 -2.878906 17.28125 -3.414062 17.25 -4.03125 C 17.21875 -4.65625 17.179688 -5.332031 17.140625 -6.0625 C 17.109375 -6.789062 17.078125 -7.507812 17.046875 -8.21875 C 17.015625 -8.925781 16.984375 -9.597656 16.953125 -10.234375 C 16.929688 -10.878906 16.921875 -11.429688 16.921875 -11.890625 C 16.546875 -11.222656 16.171875 -10.609375 15.796875 -10.046875 C 15.429688 -9.492188 15.070312 -8.960938 14.71875 -8.453125 C 14.375 -7.941406 14.035156 -7.441406 13.703125 -6.953125 C 13.367188 -6.460938 13.046875 -5.953125 12.734375 -5.421875 C 12.429688 -4.890625 12.140625 -4.332031 11.859375 -3.75 C 11.578125 -3.164062 11.316406 -2.519531 11.078125 -1.8125 L 9.21875 0.265625 C 9.238281 0.015625 9.191406 -0.28125 9.078125 -0.625 C 8.972656 -0.976562 8.847656 -1.320312 8.703125 -1.65625 C 8.546875 -2.039062 8.363281 -2.4375 8.15625 -2.84375 C 7.914062 -3.28125 7.59375 -3.882812 7.1875 -4.65625 C 6.832031 -5.300781 6.363281 -6.164062 5.78125 -7.25 C 5.207031 -8.332031 4.488281 -9.675781 3.625 -11.28125 C 3.570312 -10.414062 3.523438 -9.535156 3.484375 -8.640625 C 3.441406 -7.753906 3.378906 -6.875 3.296875 -6 C 3.222656 -5.132812 3.113281 -4.28125 2.96875 -3.4375 C 2.832031 -2.601562 2.648438 -1.8125 2.421875 -1.0625 C 2.546875 -1.019531 2.679688 -0.988281 2.828125 -0.96875 C 2.972656 -0.945312 3.125 -0.9375 3.28125 -0.9375 C 3.4375 -0.9375 3.582031 -0.941406 3.71875 -0.953125 C 3.863281 -0.972656 3.992188 -0.988281 4.109375 -1 C 4.234375 -1.019531 4.359375 -1.039062 4.484375 -1.0625 C 4.179688 -0.832031 3.90625 -0.632812 3.65625 -0.46875 C 3.40625 -0.3125 3.144531 -0.175781 2.875 -0.0625 C 2.601562 0.0507812 2.304688 0.132812 1.984375 0.1875 C 1.671875 0.238281 1.296875 0.265625 0.859375 0.265625 C 1.054688 0.078125 1.226562 -0.238281 1.375 -0.6875 C 1.519531 -1.132812 1.644531 -1.664062 1.75 -2.28125 C 1.851562 -2.894531 1.9375 -3.570312 2 -4.3125 C 2.070312 -5.0625 2.132812 -5.828125 2.1875 -6.609375 C 2.25 -7.398438 2.296875 -8.191406 2.328125 -8.984375 C 2.359375 -9.773438 2.390625 -10.523438 2.421875 -11.234375 C 2.453125 -11.941406 2.484375 -12.585938 2.515625 -13.171875 C 2.554688 -13.765625 2.609375 -14.25 2.671875 -14.625 L 4.21875 -16.328125 C 4.15625 -16.210938 4.125 -16.082031 4.125 -15.9375 C 4.125 -15.800781 4.140625 -15.671875 4.171875 -15.546875 C 4.203125 -15.390625 4.242188 -15.234375 4.296875 -15.078125 C 4.335938 -14.984375 4.4375 -14.78125 4.59375 -14.46875 C 4.75 -14.15625 4.941406 -13.769531 5.171875 -13.3125 C 5.410156 -12.851562 5.679688 -12.332031 5.984375 -11.75 C 6.285156 -11.175781 6.597656 -10.570312 6.921875 -9.9375 C 7.253906 -9.3125 7.585938 -8.675781 7.921875 -8.03125 C 8.253906 -7.382812 8.570312 -6.765625 8.875 -6.171875 C 9.1875 -5.585938 9.46875 -5.039062 9.71875 -4.53125 C 9.976562 -4.019531 10.191406 -3.585938 10.359375 -3.234375 C 10.960938 -4.171875 11.578125 -5.117188 12.203125 -6.078125 C 12.828125 -7.046875 13.425781 -8.003906 14 -8.953125 C 14.570312 -9.910156 15.101562 -10.859375 15.59375 -11.796875 C 16.09375 -12.742188 16.519531 -13.671875 16.875 -14.578125 L 19.109375 -16.328125 C 19.066406 -15.015625 19.054688 -13.753906 19.078125 -12.546875 C 19.097656 -11.335938 19.128906 -10.160156 19.171875 -9.015625 C 19.222656 -7.867188 19.269531 -6.742188 19.3125 -5.640625 C 19.351562 -4.535156 19.375 -3.4375 19.375 -2.34375 C 19.375 -2.019531 19.351562 -1.753906 19.3125 -1.546875 C 19.269531 -1.347656 19.203125 -1.207031 19.109375 -1.125 C 19.429688 -1.082031 19.765625 -1.0625 20.109375 -1.0625 C 20.390625 -1.0625 20.65625 -1.078125 20.90625 -1.109375 C 21.164062 -1.140625 21.378906 -1.191406 21.546875 -1.265625 Z M 21.546875 -1.265625 "/></g></g></g><g fill="#000000" fill-opacity="1"><g transform="translate(68.562954, 227.709646)"><g><path d="M 6.453125 -1.375 C 6.066406 -1.125 5.75 -0.90625 5.5 -0.71875 C 5.25 -0.53125 5.019531 -0.375 4.8125 -0.25 C 4.613281 -0.132812 4.421875 -0.0507812 4.234375 0 C 4.046875 0.0507812 3.820312 0.078125 3.5625 0.078125 C 3.21875 0.078125 2.925781 0.0625 2.6875 0.03125 C 2.445312 0.0078125 2.207031 0 1.96875 0 C 1.84375 0 1.71875 0.00390625 1.59375 0.015625 C 1.46875 0.0234375 1.332031 0.046875 1.1875 0.078125 C 1.382812 -0.0859375 1.5625 -0.269531 1.71875 -0.46875 C 1.882812 -0.664062 2.023438 -0.910156 2.140625 -1.203125 C 2.265625 -1.492188 2.359375 -1.84375 2.421875 -2.25 C 2.484375 -2.664062 2.515625 -3.160156 2.515625 -3.734375 L 2.515625 -14.515625 C 2.296875 -14.492188 2.03125 -14.460938 1.71875 -14.421875 C 1.40625 -14.390625 1.050781 -14.347656 0.65625 -14.296875 C 1.039062 -14.609375 1.382812 -14.84375 1.6875 -15 C 2 -15.164062 2.265625 -15.289062 2.484375 -15.375 C 2.742188 -15.457031 2.972656 -15.503906 3.171875 -15.515625 C 3.421875 -15.515625 3.695312 -15.519531 4 -15.53125 C 4.300781 -15.539062 4.59375 -15.554688 4.875 -15.578125 C 5.15625 -15.609375 5.410156 -15.644531 5.640625 -15.6875 C 5.878906 -15.726562 6.054688 -15.769531 6.171875 -15.8125 C 5.835938 -15.59375 5.535156 -15.40625 5.265625 -15.25 C 4.992188 -15.09375 4.738281 -14.96875 4.5 -14.875 C 4.46875 -13.582031 4.4375 -12.425781 4.40625 -11.40625 C 4.382812 -10.394531 4.363281 -9.492188 4.34375 -8.703125 C 4.332031 -7.921875 4.320312 -7.242188 4.3125 -6.671875 C 4.300781 -6.097656 4.289062 -5.609375 4.28125 -5.203125 C 4.257812 -4.253906 4.253906 -3.601562 4.265625 -3.25 C 4.253906 -2.988281 4.21875 -2.726562 4.15625 -2.46875 C 4.09375 -2.25 4.003906 -2.007812 3.890625 -1.75 C 3.773438 -1.5 3.613281 -1.269531 3.40625 -1.0625 C 3.539062 -1.050781 3.671875 -1.046875 3.796875 -1.046875 C 3.921875 -1.046875 4.046875 -1.046875 4.171875 -1.046875 C 4.535156 -1.046875 4.859375 -1.0625 5.140625 -1.09375 C 5.421875 -1.125 5.65625 -1.160156 5.84375 -1.203125 C 6.070312 -1.253906 6.273438 -1.3125 6.453125 -1.375 Z M 6.453125 -1.375 "/></g></g></g><g fill="#000000" fill-opacity="1"><g transform="translate(77.024041, 227.709646)"><g><path d="M 13.5625 -14.90625 C 13.476562 -14.863281 13.351562 -14.796875 13.1875 -14.703125 C 13.050781 -14.628906 12.859375 -14.519531 12.609375 -14.375 C 12.367188 -14.226562 12.050781 -14.039062 11.65625 -13.8125 C 11.78125 -13.96875 11.835938 -14.078125 11.828125 -14.140625 C 11.816406 -14.210938 11.78125 -14.257812 11.71875 -14.28125 C 11.644531 -14.3125 11.550781 -14.316406 11.4375 -14.296875 C 11.363281 -14.273438 11.207031 -14.253906 10.96875 -14.234375 C 10.738281 -14.222656 10.445312 -14.207031 10.09375 -14.1875 C 9.738281 -14.175781 9.335938 -14.160156 8.890625 -14.140625 C 8.441406 -14.128906 7.96875 -14.125 7.46875 -14.125 C 7.4375 -12.9375 7.410156 -11.867188 7.390625 -10.921875 C 7.367188 -9.984375 7.347656 -9.148438 7.328125 -8.421875 C 7.316406 -7.703125 7.304688 -7.078125 7.296875 -6.546875 C 7.285156 -6.015625 7.273438 -5.554688 7.265625 -5.171875 C 7.242188 -4.296875 7.234375 -3.6875 7.234375 -3.34375 C 7.222656 -3.082031 7.1875 -2.820312 7.125 -2.5625 C 7.070312 -2.34375 6.988281 -2.101562 6.875 -1.84375 C 6.757812 -1.59375 6.59375 -1.363281 6.375 -1.15625 C 6.507812 -1.144531 6.640625 -1.132812 6.765625 -1.125 C 6.890625 -1.125 7.007812 -1.125 7.125 -1.125 C 7.457031 -1.125 7.757812 -1.140625 8.03125 -1.171875 C 8.300781 -1.210938 8.53125 -1.25 8.71875 -1.28125 C 8.914062 -1.3125 9.070312 -1.34375 9.1875 -1.375 C 9.300781 -1.414062 9.375 -1.445312 9.40625 -1.46875 C 9.03125 -1.207031 8.71875 -0.984375 8.46875 -0.796875 C 8.21875 -0.609375 7.992188 -0.457031 7.796875 -0.34375 C 7.597656 -0.226562 7.398438 -0.140625 7.203125 -0.078125 C 7.015625 -0.0234375 6.789062 0 6.53125 0 C 6.1875 0 5.894531 -0.0078125 5.65625 -0.03125 C 5.425781 -0.0625 5.1875 -0.078125 4.9375 -0.078125 C 4.820312 -0.078125 4.703125 -0.0703125 4.578125 -0.0625 C 4.453125 -0.0507812 4.3125 -0.03125 4.15625 0 C 4.351562 -0.164062 4.535156 -0.347656 4.703125 -0.546875 C 4.867188 -0.753906 5.007812 -1.003906 5.125 -1.296875 C 5.238281 -1.585938 5.328125 -1.9375 5.390625 -2.34375 C 5.453125 -2.75 5.484375 -3.242188 5.484375 -3.828125 L 5.484375 -14.0625 C 4.867188 -14.039062 4.265625 -14.023438 3.671875 -14.015625 C 3.078125 -14.003906 2.539062 -13.992188 2.0625 -13.984375 C 1.582031 -13.972656 1.179688 -13.957031 0.859375 -13.9375 C 0.535156 -13.925781 0.332031 -13.914062 0.25 -13.90625 C 0.0507812 -13.882812 -0.0859375 -13.890625 -0.171875 -13.921875 C -0.265625 -13.960938 -0.304688 -14.019531 -0.296875 -14.09375 C -0.285156 -14.164062 -0.234375 -14.253906 -0.140625 -14.359375 C -0.046875 -14.472656 0.0820312 -14.585938 0.25 -14.703125 L 1.703125 -15.765625 C 1.597656 -15.640625 1.566406 -15.539062 1.609375 -15.46875 C 1.648438 -15.40625 1.710938 -15.359375 1.796875 -15.328125 C 1.890625 -15.296875 2.019531 -15.273438 2.1875 -15.265625 C 2.300781 -15.265625 2.53125 -15.265625 2.875 -15.265625 C 3.226562 -15.273438 3.65625 -15.285156 4.15625 -15.296875 C 4.65625 -15.304688 5.210938 -15.316406 5.828125 -15.328125 C 6.441406 -15.335938 7.0625 -15.351562 7.6875 -15.375 C 8.320312 -15.394531 8.945312 -15.410156 9.5625 -15.421875 C 10.175781 -15.429688 10.734375 -15.441406 11.234375 -15.453125 C 11.734375 -15.472656 12.15625 -15.488281 12.5 -15.5 C 12.851562 -15.507812 13.085938 -15.515625 13.203125 -15.515625 C 13.421875 -15.523438 13.578125 -15.507812 13.671875 -15.46875 C 13.773438 -15.425781 13.832031 -15.367188 13.84375 -15.296875 C 13.851562 -15.222656 13.828125 -15.148438 13.765625 -15.078125 C 13.710938 -15.003906 13.644531 -14.945312 13.5625 -14.90625 Z M 9.40625 -1.46875 C 9.40625 -1.476562 9.410156 -1.484375 9.421875 -1.484375 Z M 9.40625 -1.46875 "/></g></g></g><g fill="#000000" fill-opacity="1"><g transform="translate(91.996847, 227.709646)"><g><path d="M 6.171875 -15.890625 C 5.835938 -15.671875 5.535156 -15.488281 5.265625 -15.34375 C 4.992188 -15.195312 4.738281 -15.070312 4.5 -14.96875 C 4.488281 -14.363281 4.472656 -13.796875 4.453125 -13.265625 C 4.441406 -12.742188 4.429688 -12.25 4.421875 -11.78125 C 4.410156 -11.320312 4.398438 -10.882812 4.390625 -10.46875 C 4.390625 -10.0625 4.382812 -9.664062 4.375 -9.28125 C 4.75 -9.363281 5.140625 -9.40625 5.546875 -9.40625 C 5.941406 -9.40625 6.394531 -9.398438 6.90625 -9.390625 C 7.425781 -9.378906 7.960938 -9.363281 8.515625 -9.34375 C 9.066406 -9.320312 9.625 -9.304688 10.1875 -9.296875 C 10.75 -9.285156 11.273438 -9.28125 11.765625 -9.28125 L 12.265625 -9.28125 L 12.265625 -14.59375 C 12.046875 -14.570312 11.773438 -14.546875 11.453125 -14.515625 C 11.140625 -14.484375 10.785156 -14.441406 10.390625 -14.390625 C 10.773438 -14.703125 11.117188 -14.9375 11.421875 -15.09375 C 11.722656 -15.257812 11.984375 -15.378906 12.203125 -15.453125 C 12.460938 -15.535156 12.691406 -15.585938 12.890625 -15.609375 C 13.148438 -15.609375 13.425781 -15.613281 13.71875 -15.625 C 14.019531 -15.632812 14.3125 -15.648438 14.59375 -15.671875 C 14.882812 -15.703125 15.144531 -15.734375 15.375 -15.765625 C 15.601562 -15.804688 15.773438 -15.847656 15.890625 -15.890625 C 15.554688 -15.671875 15.253906 -15.488281 14.984375 -15.34375 C 14.722656 -15.195312 14.472656 -15.070312 14.234375 -14.96875 C 14.191406 -13.675781 14.160156 -12.519531 14.140625 -11.5 C 14.117188 -10.488281 14.097656 -9.585938 14.078125 -8.796875 C 14.066406 -8.015625 14.054688 -7.332031 14.046875 -6.75 C 14.035156 -6.175781 14.023438 -5.6875 14.015625 -5.28125 C 13.992188 -4.332031 13.988281 -3.6875 14 -3.34375 C 13.988281 -3.082031 13.953125 -2.820312 13.890625 -2.5625 C 13.828125 -2.34375 13.738281 -2.101562 13.625 -1.84375 C 13.507812 -1.59375 13.347656 -1.363281 13.140625 -1.15625 C 13.265625 -1.144531 13.382812 -1.132812 13.5 -1.125 C 13.625 -1.125 13.75 -1.125 13.875 -1.125 C 14.207031 -1.125 14.503906 -1.140625 14.765625 -1.171875 C 15.035156 -1.210938 15.269531 -1.25 15.46875 -1.28125 C 15.664062 -1.3125 15.820312 -1.34375 15.9375 -1.375 C 16.050781 -1.414062 16.125 -1.445312 16.15625 -1.46875 C 15.769531 -1.207031 15.453125 -0.984375 15.203125 -0.796875 C 14.960938 -0.609375 14.738281 -0.457031 14.53125 -0.34375 C 14.332031 -0.226562 14.140625 -0.140625 13.953125 -0.078125 C 13.765625 -0.0234375 13.539062 0 13.28125 0 C 12.945312 0 12.660156 -0.0078125 12.421875 -0.03125 C 12.179688 -0.0625 11.941406 -0.078125 11.703125 -0.078125 C 11.578125 -0.078125 11.453125 -0.0703125 11.328125 -0.0625 C 11.203125 -0.0507812 11.0625 -0.03125 10.90625 0 C 11.132812 -0.101562 11.332031 -0.210938 11.5 -0.328125 C 11.675781 -0.453125 11.816406 -0.617188 11.921875 -0.828125 C 12.035156 -1.035156 12.117188 -1.3125 12.171875 -1.65625 C 12.234375 -2 12.265625 -2.460938 12.265625 -3.046875 L 12.265625 -8.59375 C 12.054688 -8.550781 11.820312 -8.515625 11.5625 -8.484375 C 11.3125 -8.453125 11.019531 -8.4375 10.6875 -8.4375 C 10.21875 -8.4375 9.675781 -8.453125 9.0625 -8.484375 C 8.445312 -8.515625 7.769531 -8.53125 7.03125 -8.53125 C 6.59375 -8.53125 6.148438 -8.519531 5.703125 -8.5 C 5.265625 -8.476562 4.816406 -8.441406 4.359375 -8.390625 C 4.328125 -7.347656 4.304688 -6.5 4.296875 -5.84375 C 4.285156 -5.1875 4.273438 -4.671875 4.265625 -4.296875 C 4.265625 -3.867188 4.265625 -3.550781 4.265625 -3.34375 C 4.253906 -3.082031 4.21875 -2.820312 4.15625 -2.5625 C 4.09375 -2.34375 4.003906 -2.101562 3.890625 -1.84375 C 3.773438 -1.59375 3.613281 -1.363281 3.40625 -1.15625 C 3.539062 -1.144531 3.664062 -1.132812 3.78125 -1.125 C 3.90625 -1.125 4.03125 -1.125 4.15625 -1.125 C 4.488281 -1.125 4.785156 -1.140625 5.046875 -1.171875 C 5.316406 -1.210938 5.550781 -1.25 5.75 -1.28125 C 5.945312 -1.3125 6.097656 -1.34375 6.203125 -1.375 C 6.316406 -1.414062 6.390625 -1.445312 6.421875 -1.46875 C 6.046875 -1.207031 5.734375 -0.984375 5.484375 -0.796875 C 5.234375 -0.609375 5.007812 -0.457031 4.8125 -0.34375 C 4.613281 -0.226562 4.421875 -0.140625 4.234375 -0.078125 C 4.046875 -0.0234375 3.820312 0 3.5625 0 C 3.21875 0 2.925781 -0.0078125 2.6875 -0.03125 C 2.445312 -0.0625 2.207031 -0.078125 1.96875 -0.078125 C 1.84375 -0.078125 1.71875 -0.0703125 1.59375 -0.0625 C 1.46875 -0.0507812 1.332031 -0.03125 1.1875 0 C 1.382812 -0.164062 1.5625 -0.347656 1.71875 -0.546875 C 1.882812 -0.753906 2.023438 -1.003906 2.140625 -1.296875 C 2.265625 -1.585938 2.359375 -1.9375 2.421875 -2.34375 C 2.484375 -2.75 2.515625 -3.242188 2.515625 -3.828125 L 2.515625 -8.0625 C 2.359375 -8.03125 2.195312 -7.992188 2.03125 -7.953125 C 1.875 -7.910156 1.71875 -7.859375 1.5625 -7.796875 C 1.71875 -7.941406 1.875 -8.070312 2.03125 -8.1875 C 2.195312 -8.3125 2.359375 -8.429688 2.515625 -8.546875 L 2.515625 -14.59375 C 2.296875 -14.570312 2.03125 -14.546875 1.71875 -14.515625 C 1.40625 -14.484375 1.050781 -14.441406 0.65625 -14.390625 C 1.039062 -14.703125 1.382812 -14.9375 1.6875 -15.09375 C 2 -15.257812 2.265625 -15.378906 2.484375 -15.453125 C 2.742188 -15.535156 2.972656 -15.585938 3.171875 -15.609375 C 3.421875 -15.609375 3.695312 -15.613281 4 -15.625 C 4.300781 -15.632812 4.59375 -15.648438 4.875 -15.671875 C 5.15625 -15.703125 5.410156 -15.734375 5.640625 -15.765625 C 5.878906 -15.804688 6.054688 -15.847656 6.171875 -15.890625 Z M 6.421875 -1.46875 C 6.429688 -1.476562 6.441406 -1.484375 6.453125 -1.484375 Z M 16.15625 -1.46875 C 16.164062 -1.476562 16.175781 -1.484375 16.1875 -1.484375 Z M 16.15625 -1.46875 "/></g></g></g><g fill="#000000" fill-opacity="1"><g transform="translate(110.182813, 227.709646)"><g><path d="M 11.390625 -11.453125 C 11.328125 -10.921875 11.179688 -10.453125 10.953125 -10.046875 C 10.734375 -9.648438 10.460938 -9.296875 10.140625 -8.984375 C 9.816406 -8.679688 9.472656 -8.421875 9.109375 -8.203125 C 8.742188 -7.992188 8.394531 -7.816406 8.0625 -7.671875 C 8.695312 -6.992188 9.265625 -6.390625 9.765625 -5.859375 C 10.265625 -5.335938 10.707031 -4.875 11.09375 -4.46875 C 11.488281 -4.0625 11.828125 -3.710938 12.109375 -3.421875 C 12.398438 -3.128906 12.648438 -2.878906 12.859375 -2.671875 C 13.347656 -2.203125 13.6875 -1.890625 13.875 -1.734375 C 14.070312 -1.578125 14.285156 -1.46875 14.515625 -1.40625 C 14.753906 -1.34375 14.984375 -1.3125 15.203125 -1.3125 C 15.390625 -1.3125 15.566406 -1.328125 15.734375 -1.359375 C 15.910156 -1.398438 16.050781 -1.441406 16.15625 -1.484375 C 15.8125 -1.253906 15.507812 -1.046875 15.25 -0.859375 C 14.988281 -0.679688 14.75 -0.523438 14.53125 -0.390625 C 14.3125 -0.253906 14.101562 -0.148438 13.90625 -0.078125 C 13.71875 -0.015625 13.519531 0.015625 13.3125 0.015625 C 13.164062 0.015625 13.023438 -0.00390625 12.890625 -0.046875 C 12.753906 -0.0859375 12.609375 -0.15625 12.453125 -0.25 C 12.296875 -0.34375 12.128906 -0.457031 11.953125 -0.59375 C 11.785156 -0.738281 11.597656 -0.910156 11.390625 -1.109375 C 11.253906 -1.242188 11.050781 -1.460938 10.78125 -1.765625 C 10.507812 -2.066406 10.207031 -2.40625 9.875 -2.78125 C 9.539062 -3.15625 9.191406 -3.546875 8.828125 -3.953125 C 8.460938 -4.359375 8.117188 -4.734375 7.796875 -5.078125 C 7.484375 -5.421875 7.203125 -5.71875 6.953125 -5.96875 C 6.703125 -6.21875 6.535156 -6.367188 6.453125 -6.421875 C 6.335938 -6.484375 6.222656 -6.539062 6.109375 -6.59375 C 6.003906 -6.632812 5.882812 -6.671875 5.75 -6.703125 C 5.625 -6.734375 5.5 -6.742188 5.375 -6.734375 L 6.921875 -7.796875 C 7.273438 -7.796875 7.613281 -7.878906 7.9375 -8.046875 C 8.269531 -8.210938 8.550781 -8.453125 8.78125 -8.765625 C 9.019531 -9.085938 9.207031 -9.472656 9.34375 -9.921875 C 9.476562 -10.378906 9.535156 -10.894531 9.515625 -11.46875 C 9.492188 -11.8125 9.414062 -12.125 9.28125 -12.40625 C 9.144531 -12.6875 8.96875 -12.9375 8.75 -13.15625 C 8.53125 -13.375 8.28125 -13.566406 8 -13.734375 C 7.726562 -13.898438 7.445312 -14.035156 7.15625 -14.140625 C 6.863281 -14.253906 6.570312 -14.335938 6.28125 -14.390625 C 5.988281 -14.441406 5.722656 -14.46875 5.484375 -14.46875 C 5.316406 -14.46875 5.140625 -14.460938 4.953125 -14.453125 C 4.765625 -14.453125 4.570312 -14.453125 4.375 -14.453125 C 4.351562 -13.117188 4.328125 -11.925781 4.296875 -10.875 C 4.273438 -9.832031 4.253906 -8.90625 4.234375 -8.09375 C 4.210938 -7.289062 4.191406 -6.59375 4.171875 -6 C 4.160156 -5.414062 4.144531 -4.914062 4.125 -4.5 C 4.082031 -3.53125 4.039062 -2.878906 4 -2.546875 C 3.976562 -2.398438 3.941406 -2.253906 3.890625 -2.109375 C 3.847656 -1.972656 3.789062 -1.832031 3.71875 -1.6875 C 3.644531 -1.539062 3.550781 -1.394531 3.4375 -1.25 C 3.738281 -1.21875 4.007812 -1.195312 4.25 -1.1875 C 4.5 -1.1875 4.726562 -1.1875 4.9375 -1.1875 C 5.425781 -1.1875 5.785156 -1.195312 6.015625 -1.21875 C 6.253906 -1.25 6.390625 -1.273438 6.421875 -1.296875 C 6.054688 -1.109375 5.707031 -0.9375 5.375 -0.78125 C 5.050781 -0.625 4.738281 -0.484375 4.4375 -0.359375 C 4.132812 -0.242188 3.847656 -0.148438 3.578125 -0.078125 C 3.304688 -0.015625 3.039062 0.015625 2.78125 0.015625 L 0.921875 0.015625 L 1.859375 -0.609375 C 1.910156 -0.796875 1.957031 -1.015625 2 -1.265625 C 2.050781 -1.523438 2.09375 -1.800781 2.125 -2.09375 C 2.15625 -2.394531 2.179688 -2.703125 2.203125 -3.015625 C 2.234375 -3.328125 2.257812 -3.640625 2.28125 -3.953125 C 2.320312 -4.648438 2.351562 -5.394531 2.375 -6.1875 C 2.394531 -7.28125 2.410156 -8.332031 2.421875 -9.34375 C 2.429688 -9.78125 2.4375 -10.226562 2.4375 -10.6875 C 2.445312 -11.144531 2.453125 -11.59375 2.453125 -12.03125 C 2.460938 -12.46875 2.46875 -12.882812 2.46875 -13.28125 C 2.476562 -13.675781 2.484375 -14.023438 2.484375 -14.328125 L 0.5625 -14.1875 L 2.640625 -15.4375 C 2.765625 -15.414062 2.898438 -15.398438 3.046875 -15.390625 C 3.191406 -15.390625 3.34375 -15.390625 3.5 -15.390625 C 3.800781 -15.390625 4.101562 -15.398438 4.40625 -15.421875 C 4.707031 -15.453125 5.003906 -15.484375 5.296875 -15.515625 C 5.597656 -15.546875 5.890625 -15.570312 6.171875 -15.59375 C 6.453125 -15.625 6.738281 -15.640625 7.03125 -15.640625 C 7.601562 -15.640625 8.160156 -15.546875 8.703125 -15.359375 C 9.253906 -15.171875 9.738281 -14.894531 10.15625 -14.53125 C 10.570312 -14.164062 10.894531 -13.722656 11.125 -13.203125 C 11.363281 -12.679688 11.453125 -12.097656 11.390625 -11.453125 Z M 16.1875 -1.5 C 16.164062 -1.5 16.15625 -1.5 16.15625 -1.5 L 16.15625 -1.484375 L 16.15625 -1.5 C 16.164062 -1.5 16.175781 -1.5 16.1875 -1.5 Z M 16.1875 -1.5 "/></g></g></g><g fill="#000000" fill-opacity="1"><g transform="translate(126.554038, 227.709646)"><g><path d="M 6.453125 -1.375 C 6.066406 -1.125 5.75 -0.90625 5.5 -0.71875 C 5.25 -0.53125 5.019531 -0.375 4.8125 -0.25 C 4.613281 -0.132812 4.421875 -0.0507812 4.234375 0 C 4.046875 0.0507812 3.820312 0.078125 3.5625 0.078125 C 3.21875 0.078125 2.925781 0.0625 2.6875 0.03125 C 2.445312 0.0078125 2.207031 0 1.96875 0 C 1.84375 0 1.71875 0.00390625 1.59375 0.015625 C 1.46875 0.0234375 1.332031 0.046875 1.1875 0.078125 C 1.382812 -0.0859375 1.5625 -0.269531 1.71875 -0.46875 C 1.882812 -0.664062 2.023438 -0.910156 2.140625 -1.203125 C 2.265625 -1.492188 2.359375 -1.84375 2.421875 -2.25 C 2.484375 -2.664062 2.515625 -3.160156 2.515625 -3.734375 L 2.515625 -14.515625 C 2.296875 -14.492188 2.03125 -14.460938 1.71875 -14.421875 C 1.40625 -14.390625 1.050781 -14.347656 0.65625 -14.296875 C 1.039062 -14.609375 1.382812 -14.84375 1.6875 -15 C 2 -15.164062 2.265625 -15.289062 2.484375 -15.375 C 2.742188 -15.457031 2.972656 -15.503906 3.171875 -15.515625 C 3.421875 -15.515625 3.695312 -15.519531 4 -15.53125 C 4.300781 -15.539062 4.59375 -15.554688 4.875 -15.578125 C 5.15625 -15.609375 5.410156 -15.644531 5.640625 -15.6875 C 5.878906 -15.726562 6.054688 -15.769531 6.171875 -15.8125 C 5.835938 -15.59375 5.535156 -15.40625 5.265625 -15.25 C 4.992188 -15.09375 4.738281 -14.96875 4.5 -14.875 C 4.46875 -13.582031 4.4375 -12.425781 4.40625 -11.40625 C 4.382812 -10.394531 4.363281 -9.492188 4.34375 -8.703125 C 4.332031 -7.921875 4.320312 -7.242188 4.3125 -6.671875 C 4.300781 -6.097656 4.289062 -5.609375 4.28125 -5.203125 C 4.257812 -4.253906 4.253906 -3.601562 4.265625 -3.25 C 4.253906 -2.988281 4.21875 -2.726562 4.15625 -2.46875 C 4.09375 -2.25 4.003906 -2.007812 3.890625 -1.75 C 3.773438 -1.5 3.613281 -1.269531 3.40625 -1.0625 C 3.539062 -1.050781 3.671875 -1.046875 3.796875 -1.046875 C 3.921875 -1.046875 4.046875 -1.046875 4.171875 -1.046875 C 4.535156 -1.046875 4.859375 -1.0625 5.140625 -1.09375 C 5.421875 -1.125 5.65625 -1.160156 5.84375 -1.203125 C 6.070312 -1.253906 6.273438 -1.3125 6.453125 -1.375 Z M 6.453125 -1.375 "/></g></g></g><g fill="#000000" fill-opacity="1"><g transform="translate(135.015125, 227.709646)"><g><path d="M 6.171875 -15.8125 C 5.835938 -15.59375 5.535156 -15.40625 5.265625 -15.25 C 4.992188 -15.09375 4.738281 -14.96875 4.5 -14.875 C 4.46875 -13.582031 4.4375 -12.425781 4.40625 -11.40625 C 4.382812 -10.394531 4.363281 -9.492188 4.34375 -8.703125 C 4.332031 -7.921875 4.320312 -7.242188 4.3125 -6.671875 C 4.300781 -6.097656 4.289062 -5.609375 4.28125 -5.203125 C 4.257812 -4.253906 4.253906 -3.601562 4.265625 -3.25 C 4.253906 -2.988281 4.222656 -2.738281 4.171875 -2.5 C 4.128906 -2.289062 4.0625 -2.070312 3.96875 -1.84375 C 3.875 -1.613281 3.75 -1.414062 3.59375 -1.25 C 4.019531 -1.238281 4.414062 -1.234375 4.78125 -1.234375 C 5.15625 -1.234375 5.515625 -1.234375 5.859375 -1.234375 C 6.835938 -1.234375 7.640625 -1.242188 8.265625 -1.265625 C 8.898438 -1.296875 9.40625 -1.332031 9.78125 -1.375 C 10.164062 -1.414062 10.4375 -1.453125 10.59375 -1.484375 C 10.75 -1.515625 10.835938 -1.535156 10.859375 -1.546875 C 10.484375 -1.285156 10.171875 -1.0625 9.921875 -0.875 C 9.671875 -0.695312 9.445312 -0.546875 9.25 -0.421875 C 9.0625 -0.304688 8.875 -0.21875 8.6875 -0.15625 C 8.5 -0.101562 8.28125 -0.078125 8.03125 -0.078125 L 6.375 -0.078125 C 5.914062 -0.078125 5.414062 -0.078125 4.875 -0.078125 C 4.332031 -0.078125 3.816406 -0.0703125 3.328125 -0.0625 C 2.835938 -0.0507812 2.398438 -0.03125 2.015625 0 C 1.628906 0.0195312 1.351562 0.046875 1.1875 0.078125 C 1.382812 -0.0859375 1.5625 -0.269531 1.71875 -0.46875 C 1.882812 -0.664062 2.023438 -0.910156 2.140625 -1.203125 C 2.265625 -1.492188 2.359375 -1.84375 2.421875 -2.25 C 2.484375 -2.664062 2.515625 -3.160156 2.515625 -3.734375 L 2.515625 -14.515625 C 2.296875 -14.492188 2.03125 -14.460938 1.71875 -14.421875 C 1.40625 -14.390625 1.050781 -14.347656 0.65625 -14.296875 C 1.039062 -14.609375 1.382812 -14.84375 1.6875 -15 C 2 -15.164062 2.265625 -15.289062 2.484375 -15.375 C 2.742188 -15.457031 2.972656 -15.503906 3.171875 -15.515625 C 3.421875 -15.515625 3.695312 -15.519531 4 -15.53125 C 4.300781 -15.539062 4.59375 -15.554688 4.875 -15.578125 C 5.15625 -15.609375 5.410156 -15.644531 5.640625 -15.6875 C 5.878906 -15.726562 6.054688 -15.769531 6.171875 -15.8125 Z M 10.859375 -1.546875 L 10.859375 -1.5625 C 10.867188 -1.5625 10.878906 -1.5625 10.890625 -1.5625 Z M 10.859375 -1.546875 "/></g></g></g><g fill="#000000" fill-opacity="1"><g transform="translate(147.041645, 227.709646)"><g/></g></g><g fill="#000000" fill-opacity="1"><g transform="translate(154.125663, 227.709646)"><g><path d="M 6.171875 -15.890625 C 5.835938 -15.671875 5.535156 -15.488281 5.265625 -15.34375 C 4.992188 -15.195312 4.738281 -15.070312 4.5 -14.96875 C 4.488281 -14.363281 4.472656 -13.796875 4.453125 -13.265625 C 4.441406 -12.742188 4.429688 -12.25 4.421875 -11.78125 C 4.410156 -11.320312 4.398438 -10.882812 4.390625 -10.46875 C 4.390625 -10.0625 4.382812 -9.664062 4.375 -9.28125 C 4.75 -9.363281 5.140625 -9.40625 5.546875 -9.40625 C 5.941406 -9.40625 6.394531 -9.398438 6.90625 -9.390625 C 7.425781 -9.378906 7.960938 -9.363281 8.515625 -9.34375 C 9.066406 -9.320312 9.625 -9.304688 10.1875 -9.296875 C 10.75 -9.285156 11.273438 -9.28125 11.765625 -9.28125 L 12.265625 -9.28125 L 12.265625 -14.59375 C 12.046875 -14.570312 11.773438 -14.546875 11.453125 -14.515625 C 11.140625 -14.484375 10.785156 -14.441406 10.390625 -14.390625 C 10.773438 -14.703125 11.117188 -14.9375 11.421875 -15.09375 C 11.722656 -15.257812 11.984375 -15.378906 12.203125 -15.453125 C 12.460938 -15.535156 12.691406 -15.585938 12.890625 -15.609375 C 13.148438 -15.609375 13.425781 -15.613281 13.71875 -15.625 C 14.019531 -15.632812 14.3125 -15.648438 14.59375 -15.671875 C 14.882812 -15.703125 15.144531 -15.734375 15.375 -15.765625 C 15.601562 -15.804688 15.773438 -15.847656 15.890625 -15.890625 C 15.554688 -15.671875 15.253906 -15.488281 14.984375 -15.34375 C 14.722656 -15.195312 14.472656 -15.070312 14.234375 -14.96875 C 14.191406 -13.675781 14.160156 -12.519531 14.140625 -11.5 C 14.117188 -10.488281 14.097656 -9.585938 14.078125 -8.796875 C 14.066406 -8.015625 14.054688 -7.332031 14.046875 -6.75 C 14.035156 -6.175781 14.023438 -5.6875 14.015625 -5.28125 C 13.992188 -4.332031 13.988281 -3.6875 14 -3.34375 C 13.988281 -3.082031 13.953125 -2.820312 13.890625 -2.5625 C 13.828125 -2.34375 13.738281 -2.101562 13.625 -1.84375 C 13.507812 -1.59375 13.347656 -1.363281 13.140625 -1.15625 C 13.265625 -1.144531 13.382812 -1.132812 13.5 -1.125 C 13.625 -1.125 13.75 -1.125 13.875 -1.125 C 14.207031 -1.125 14.503906 -1.140625 14.765625 -1.171875 C 15.035156 -1.210938 15.269531 -1.25 15.46875 -1.28125 C 15.664062 -1.3125 15.820312 -1.34375 15.9375 -1.375 C 16.050781 -1.414062 16.125 -1.445312 16.15625 -1.46875 C 15.769531 -1.207031 15.453125 -0.984375 15.203125 -0.796875 C 14.960938 -0.609375 14.738281 -0.457031 14.53125 -0.34375 C 14.332031 -0.226562 14.140625 -0.140625 13.953125 -0.078125 C 13.765625 -0.0234375 13.539062 0 13.28125 0 C 12.945312 0 12.660156 -0.0078125 12.421875 -0.03125 C 12.179688 -0.0625 11.941406 -0.078125 11.703125 -0.078125 C 11.578125 -0.078125 11.453125 -0.0703125 11.328125 -0.0625 C 11.203125 -0.0507812 11.0625 -0.03125 10.90625 0 C 11.132812 -0.101562 11.332031 -0.210938 11.5 -0.328125 C 11.675781 -0.453125 11.816406 -0.617188 11.921875 -0.828125 C 12.035156 -1.035156 12.117188 -1.3125 12.171875 -1.65625 C 12.234375 -2 12.265625 -2.460938 12.265625 -3.046875 L 12.265625 -8.59375 C 12.054688 -8.550781 11.820312 -8.515625 11.5625 -8.484375 C 11.3125 -8.453125 11.019531 -8.4375 10.6875 -8.4375 C 10.21875 -8.4375 9.675781 -8.453125 9.0625 -8.484375 C 8.445312 -8.515625 7.769531 -8.53125 7.03125 -8.53125 C 6.59375 -8.53125 6.148438 -8.519531 5.703125 -8.5 C 5.265625 -8.476562 4.816406 -8.441406 4.359375 -8.390625 C 4.328125 -7.347656 4.304688 -6.5 4.296875 -5.84375 C 4.285156 -5.1875 4.273438 -4.671875 4.265625 -4.296875 C 4.265625 -3.867188 4.265625 -3.550781 4.265625 -3.34375 C 4.253906 -3.082031 4.21875 -2.820312 4.15625 -2.5625 C 4.09375 -2.34375 4.003906 -2.101562 3.890625 -1.84375 C 3.773438 -1.59375 3.613281 -1.363281 3.40625 -1.15625 C 3.539062 -1.144531 3.664062 -1.132812 3.78125 -1.125 C 3.90625 -1.125 4.03125 -1.125 4.15625 -1.125 C 4.488281 -1.125 4.785156 -1.140625 5.046875 -1.171875 C 5.316406 -1.210938 5.550781 -1.25 5.75 -1.28125 C 5.945312 -1.3125 6.097656 -1.34375 6.203125 -1.375 C 6.316406 -1.414062 6.390625 -1.445312 6.421875 -1.46875 C 6.046875 -1.207031 5.734375 -0.984375 5.484375 -0.796875 C 5.234375 -0.609375 5.007812 -0.457031 4.8125 -0.34375 C 4.613281 -0.226562 4.421875 -0.140625 4.234375 -0.078125 C 4.046875 -0.0234375 3.820312 0 3.5625 0 C 3.21875 0 2.925781 -0.0078125 2.6875 -0.03125 C 2.445312 -0.0625 2.207031 -0.078125 1.96875 -0.078125 C 1.84375 -0.078125 1.71875 -0.0703125 1.59375 -0.0625 C 1.46875 -0.0507812 1.332031 -0.03125 1.1875 0 C 1.382812 -0.164062 1.5625 -0.347656 1.71875 -0.546875 C 1.882812 -0.753906 2.023438 -1.003906 2.140625 -1.296875 C 2.265625 -1.585938 2.359375 -1.9375 2.421875 -2.34375 C 2.484375 -2.75 2.515625 -3.242188 2.515625 -3.828125 L 2.515625 -8.0625 C 2.359375 -8.03125 2.195312 -7.992188 2.03125 -7.953125 C 1.875 -7.910156 1.71875 -7.859375 1.5625 -7.796875 C 1.71875 -7.941406 1.875 -8.070312 2.03125 -8.1875 C 2.195312 -8.3125 2.359375 -8.429688 2.515625 -8.546875 L 2.515625 -14.59375 C 2.296875 -14.570312 2.03125 -14.546875 1.71875 -14.515625 C 1.40625 -14.484375 1.050781 -14.441406 0.65625 -14.390625 C 1.039062 -14.703125 1.382812 -14.9375 1.6875 -15.09375 C 2 -15.257812 2.265625 -15.378906 2.484375 -15.453125 C 2.742188 -15.535156 2.972656 -15.585938 3.171875 -15.609375 C 3.421875 -15.609375 3.695312 -15.613281 4 -15.625 C 4.300781 -15.632812 4.59375 -15.648438 4.875 -15.671875 C 5.15625 -15.703125 5.410156 -15.734375 5.640625 -15.765625 C 5.878906 -15.804688 6.054688 -15.847656 6.171875 -15.890625 Z M 6.421875 -1.46875 C 6.429688 -1.476562 6.441406 -1.484375 6.453125 -1.484375 Z M 16.15625 -1.46875 C 16.164062 -1.476562 16.175781 -1.484375 16.1875 -1.484375 Z M 16.15625 -1.46875 "/></g></g></g><g fill="#000000" fill-opacity="1"><g transform="translate(172.311623, 227.709646)"><g><path d="M 16.015625 -8.28125 C 16.015625 -7.375 15.863281 -6.535156 15.5625 -5.765625 C 15.269531 -5.003906 14.878906 -4.304688 14.390625 -3.671875 C 13.898438 -3.035156 13.335938 -2.472656 12.703125 -1.984375 C 12.078125 -1.503906 11.429688 -1.097656 10.765625 -0.765625 C 10.109375 -0.429688 9.460938 -0.175781 8.828125 0 C 8.203125 0.164062 7.632812 0.25 7.125 0.25 C 6.695312 0.25 6.242188 0.179688 5.765625 0.046875 C 5.296875 -0.0859375 4.828125 -0.28125 4.359375 -0.53125 C 3.890625 -0.789062 3.441406 -1.113281 3.015625 -1.5 C 2.585938 -1.894531 2.210938 -2.347656 1.890625 -2.859375 C 1.566406 -3.367188 1.304688 -3.9375 1.109375 -4.5625 C 0.921875 -5.1875 0.828125 -5.875 0.828125 -6.625 C 0.828125 -7.625 0.96875 -8.535156 1.25 -9.359375 C 1.53125 -10.179688 1.898438 -10.921875 2.359375 -11.578125 C 2.816406 -12.242188 3.335938 -12.820312 3.921875 -13.3125 C 4.503906 -13.800781 5.101562 -14.207031 5.71875 -14.53125 C 6.34375 -14.851562 6.953125 -15.09375 7.546875 -15.25 C 8.140625 -15.414062 8.675781 -15.5 9.15625 -15.5 C 9.664062 -15.5 10.1875 -15.441406 10.71875 -15.328125 C 11.25 -15.222656 11.769531 -15.050781 12.28125 -14.8125 C 12.789062 -14.582031 13.269531 -14.28125 13.71875 -13.90625 C 14.175781 -13.539062 14.570312 -13.085938 14.90625 -12.546875 C 15.25 -12.015625 15.519531 -11.394531 15.71875 -10.6875 C 15.914062 -9.976562 16.015625 -9.175781 16.015625 -8.28125 Z M 14.078125 -7.625 C 14.078125 -8.414062 13.976562 -9.128906 13.78125 -9.765625 C 13.59375 -10.398438 13.335938 -10.960938 13.015625 -11.453125 C 12.691406 -11.953125 12.316406 -12.378906 11.890625 -12.734375 C 11.472656 -13.097656 11.035156 -13.394531 10.578125 -13.625 C 10.117188 -13.863281 9.648438 -14.035156 9.171875 -14.140625 C 8.703125 -14.253906 8.257812 -14.3125 7.84375 -14.3125 C 7.175781 -14.3125 6.53125 -14.1875 5.90625 -13.9375 C 5.28125 -13.6875 4.722656 -13.289062 4.234375 -12.75 C 3.742188 -12.207031 3.351562 -11.515625 3.0625 -10.671875 C 2.769531 -9.828125 2.625 -8.8125 2.625 -7.625 C 2.625 -6.84375 2.738281 -6.132812 2.96875 -5.5 C 3.195312 -4.875 3.492188 -4.320312 3.859375 -3.84375 C 4.234375 -3.363281 4.648438 -2.953125 5.109375 -2.609375 C 5.578125 -2.273438 6.050781 -2 6.53125 -1.78125 C 7.019531 -1.570312 7.488281 -1.414062 7.9375 -1.3125 C 8.382812 -1.207031 8.773438 -1.15625 9.109375 -1.15625 C 9.441406 -1.15625 9.796875 -1.207031 10.171875 -1.3125 C 10.546875 -1.414062 10.914062 -1.570312 11.28125 -1.78125 C 11.65625 -2 12.007812 -2.28125 12.34375 -2.625 C 12.675781 -2.96875 12.972656 -3.375 13.234375 -3.84375 C 13.492188 -4.320312 13.695312 -4.875 13.84375 -5.5 C 14 -6.132812 14.078125 -6.84375 14.078125 -7.625 Z M 14.078125 -7.625 "/></g></g></g><g fill="#000000" fill-opacity="1"><g transform="translate(190.785819, 227.709646)"><g><path d="M 6.171875 -15.8125 C 5.835938 -15.59375 5.535156 -15.40625 5.265625 -15.25 C 4.992188 -15.09375 4.738281 -14.96875 4.5 -14.875 C 4.46875 -13.582031 4.4375 -12.425781 4.40625 -11.40625 C 4.382812 -10.394531 4.363281 -9.492188 4.34375 -8.703125 C 4.332031 -7.921875 4.320312 -7.242188 4.3125 -6.671875 C 4.300781 -6.097656 4.289062 -5.609375 4.28125 -5.203125 C 4.257812 -4.253906 4.253906 -3.601562 4.265625 -3.25 C 4.253906 -2.988281 4.222656 -2.738281 4.171875 -2.5 C 4.128906 -2.289062 4.0625 -2.070312 3.96875 -1.84375 C 3.875 -1.613281 3.75 -1.414062 3.59375 -1.25 C 4.019531 -1.238281 4.414062 -1.234375 4.78125 -1.234375 C 5.15625 -1.234375 5.515625 -1.234375 5.859375 -1.234375 C 6.835938 -1.234375 7.640625 -1.242188 8.265625 -1.265625 C 8.898438 -1.296875 9.40625 -1.332031 9.78125 -1.375 C 10.164062 -1.414062 10.4375 -1.453125 10.59375 -1.484375 C 10.75 -1.515625 10.835938 -1.535156 10.859375 -1.546875 C 10.484375 -1.285156 10.171875 -1.0625 9.921875 -0.875 C 9.671875 -0.695312 9.445312 -0.546875 9.25 -0.421875 C 9.0625 -0.304688 8.875 -0.21875 8.6875 -0.15625 C 8.5 -0.101562 8.28125 -0.078125 8.03125 -0.078125 L 6.375 -0.078125 C 5.914062 -0.078125 5.414062 -0.078125 4.875 -0.078125 C 4.332031 -0.078125 3.816406 -0.0703125 3.328125 -0.0625 C 2.835938 -0.0507812 2.398438 -0.03125 2.015625 0 C 1.628906 0.0195312 1.351562 0.046875 1.1875 0.078125 C 1.382812 -0.0859375 1.5625 -0.269531 1.71875 -0.46875 C 1.882812 -0.664062 2.023438 -0.910156 2.140625 -1.203125 C 2.265625 -1.492188 2.359375 -1.84375 2.421875 -2.25 C 2.484375 -2.664062 2.515625 -3.160156 2.515625 -3.734375 L 2.515625 -14.515625 C 2.296875 -14.492188 2.03125 -14.460938 1.71875 -14.421875 C 1.40625 -14.390625 1.050781 -14.347656 0.65625 -14.296875 C 1.039062 -14.609375 1.382812 -14.84375 1.6875 -15 C 2 -15.164062 2.265625 -15.289062 2.484375 -15.375 C 2.742188 -15.457031 2.972656 -15.503906 3.171875 -15.515625 C 3.421875 -15.515625 3.695312 -15.519531 4 -15.53125 C 4.300781 -15.539062 4.59375 -15.554688 4.875 -15.578125 C 5.15625 -15.609375 5.410156 -15.644531 5.640625 -15.6875 C 5.878906 -15.726562 6.054688 -15.769531 6.171875 -15.8125 Z M 10.859375 -1.546875 L 10.859375 -1.5625 C 10.867188 -1.5625 10.878906 -1.5625 10.890625 -1.5625 Z M 10.859375 -1.546875 "/></g></g></g><g fill="#000000" fill-opacity="1"><g transform="translate(202.812346, 227.709646)"><g><path d="M 15.578125 -8.578125 C 15.578125 -7.691406 15.429688 -6.863281 15.140625 -6.09375 C 14.847656 -5.332031 14.445312 -4.632812 13.9375 -4 C 13.4375 -3.363281 12.851562 -2.796875 12.1875 -2.296875 C 11.519531 -1.804688 10.8125 -1.390625 10.0625 -1.046875 C 9.3125 -0.703125 8.539062 -0.441406 7.75 -0.265625 C 6.96875 -0.0859375 6.207031 0 5.46875 0 C 5.394531 0.0078125 5.265625 0.015625 5.078125 0.015625 C 4.890625 0.015625 4.671875 0.015625 4.421875 0.015625 C 4.171875 0.015625 3.898438 0.015625 3.609375 0.015625 C 3.316406 0.015625 3.03125 0.015625 2.75 0.015625 C 2.476562 0.015625 2.21875 0.015625 1.96875 0.015625 C 1.726562 0.015625 1.53125 0.0078125 1.375 0 C 1.5 0 1.601562 -0.03125 1.6875 -0.09375 C 1.78125 -0.15625 1.859375 -0.238281 1.921875 -0.34375 C 1.992188 -0.457031 2.050781 -0.582031 2.09375 -0.71875 C 2.144531 -0.851562 2.191406 -0.992188 2.234375 -1.140625 C 2.304688 -1.484375 2.347656 -1.867188 2.359375 -2.296875 C 2.359375 -2.816406 2.363281 -3.597656 2.375 -4.640625 C 2.382812 -5.085938 2.390625 -5.609375 2.390625 -6.203125 C 2.398438 -6.804688 2.410156 -7.5 2.421875 -8.28125 C 2.441406 -9.0625 2.460938 -9.9375 2.484375 -10.90625 C 2.503906 -11.882812 2.523438 -12.96875 2.546875 -14.15625 C 2.234375 -14.125 1.921875 -14.097656 1.609375 -14.078125 C 1.296875 -14.066406 0.96875 -14.066406 0.625 -14.078125 L 2.625 -15.390625 C 2.945312 -15.347656 3.28125 -15.316406 3.625 -15.296875 C 3.976562 -15.285156 4.328125 -15.28125 4.671875 -15.28125 C 5.296875 -15.28125 5.875 -15.304688 6.40625 -15.359375 C 6.9375 -15.410156 7.460938 -15.4375 7.984375 -15.4375 C 8.453125 -15.4375 8.960938 -15.394531 9.515625 -15.3125 C 10.078125 -15.238281 10.640625 -15.101562 11.203125 -14.90625 C 11.765625 -14.71875 12.304688 -14.457031 12.828125 -14.125 C 13.359375 -13.800781 13.828125 -13.382812 14.234375 -12.875 C 14.640625 -12.363281 14.960938 -11.753906 15.203125 -11.046875 C 15.453125 -10.335938 15.578125 -9.515625 15.578125 -8.578125 Z M 4.15625 -2.953125 C 4.132812 -2.722656 4.085938 -2.507812 4.015625 -2.3125 C 3.953125 -2.125 3.863281 -1.929688 3.75 -1.734375 C 3.644531 -1.535156 3.5 -1.367188 3.3125 -1.234375 C 4.300781 -1.179688 5.113281 -1.144531 5.75 -1.125 C 6.394531 -1.113281 6.910156 -1.109375 7.296875 -1.109375 C 8.285156 -1.109375 9.171875 -1.285156 9.953125 -1.640625 C 10.734375 -1.992188 11.394531 -2.46875 11.9375 -3.0625 C 12.476562 -3.664062 12.894531 -4.363281 13.1875 -5.15625 C 13.476562 -5.957031 13.625 -6.804688 13.625 -7.703125 C 13.625 -8.578125 13.503906 -9.351562 13.265625 -10.03125 C 13.035156 -10.707031 12.726562 -11.300781 12.34375 -11.8125 C 11.957031 -12.320312 11.519531 -12.75 11.03125 -13.09375 C 10.539062 -13.445312 10.035156 -13.726562 9.515625 -13.9375 C 9.003906 -14.15625 8.492188 -14.3125 7.984375 -14.40625 C 7.484375 -14.507812 7.03125 -14.5625 6.625 -14.5625 C 6.207031 -14.5625 5.816406 -14.546875 5.453125 -14.515625 C 5.085938 -14.484375 4.734375 -14.445312 4.390625 -14.40625 C 4.367188 -13.113281 4.347656 -11.957031 4.328125 -10.9375 C 4.316406 -9.925781 4.300781 -9.03125 4.28125 -8.25 C 4.269531 -7.476562 4.257812 -6.804688 4.25 -6.234375 C 4.238281 -5.671875 4.226562 -5.191406 4.21875 -4.796875 C 4.1875 -3.878906 4.164062 -3.265625 4.15625 -2.953125 Z M 4.15625 -2.953125 "/></g></g></g><g fill="#000000" fill-opacity="1"><g transform="translate(220.848857, 227.709646)"><g><path d="M 6.453125 -1.375 C 6.066406 -1.125 5.75 -0.90625 5.5 -0.71875 C 5.25 -0.53125 5.019531 -0.375 4.8125 -0.25 C 4.613281 -0.132812 4.421875 -0.0507812 4.234375 0 C 4.046875 0.0507812 3.820312 0.078125 3.5625 0.078125 C 3.21875 0.078125 2.925781 0.0625 2.6875 0.03125 C 2.445312 0.0078125 2.207031 0 1.96875 0 C 1.84375 0 1.71875 0.00390625 1.59375 0.015625 C 1.46875 0.0234375 1.332031 0.046875 1.1875 0.078125 C 1.382812 -0.0859375 1.5625 -0.269531 1.71875 -0.46875 C 1.882812 -0.664062 2.023438 -0.910156 2.140625 -1.203125 C 2.265625 -1.492188 2.359375 -1.84375 2.421875 -2.25 C 2.484375 -2.664062 2.515625 -3.160156 2.515625 -3.734375 L 2.515625 -14.515625 C 2.296875 -14.492188 2.03125 -14.460938 1.71875 -14.421875 C 1.40625 -14.390625 1.050781 -14.347656 0.65625 -14.296875 C 1.039062 -14.609375 1.382812 -14.84375 1.6875 -15 C 2 -15.164062 2.265625 -15.289062 2.484375 -15.375 C 2.742188 -15.457031 2.972656 -15.503906 3.171875 -15.515625 C 3.421875 -15.515625 3.695312 -15.519531 4 -15.53125 C 4.300781 -15.539062 4.59375 -15.554688 4.875 -15.578125 C 5.15625 -15.609375 5.410156 -15.644531 5.640625 -15.6875 C 5.878906 -15.726562 6.054688 -15.769531 6.171875 -15.8125 C 5.835938 -15.59375 5.535156 -15.40625 5.265625 -15.25 C 4.992188 -15.09375 4.738281 -14.96875 4.5 -14.875 C 4.46875 -13.582031 4.4375 -12.425781 4.40625 -11.40625 C 4.382812 -10.394531 4.363281 -9.492188 4.34375 -8.703125 C 4.332031 -7.921875 4.320312 -7.242188 4.3125 -6.671875 C 4.300781 -6.097656 4.289062 -5.609375 4.28125 -5.203125 C 4.257812 -4.253906 4.253906 -3.601562 4.265625 -3.25 C 4.253906 -2.988281 4.21875 -2.726562 4.15625 -2.46875 C 4.09375 -2.25 4.003906 -2.007812 3.890625 -1.75 C 3.773438 -1.5 3.613281 -1.269531 3.40625 -1.0625 C 3.539062 -1.050781 3.671875 -1.046875 3.796875 -1.046875 C 3.921875 -1.046875 4.046875 -1.046875 4.171875 -1.046875 C 4.535156 -1.046875 4.859375 -1.0625 5.140625 -1.09375 C 5.421875 -1.125 5.65625 -1.160156 5.84375 -1.203125 C 6.070312 -1.253906 6.273438 -1.3125 6.453125 -1.375 Z M 6.453125 -1.375 "/></g></g></g><g fill="#000000" fill-opacity="1"><g transform="translate(229.30995, 227.709646)"><g><path d="M 3.078125 -1.96875 C 3.066406 -1.90625 3.035156 -1.828125 2.984375 -1.734375 C 2.941406 -1.660156 2.878906 -1.5625 2.796875 -1.4375 C 2.722656 -1.320312 2.617188 -1.1875 2.484375 -1.03125 C 2.691406 -0.976562 2.898438 -0.945312 3.109375 -0.9375 C 3.316406 -0.925781 3.507812 -0.921875 3.6875 -0.921875 C 4.050781 -0.921875 4.34375 -0.929688 4.5625 -0.953125 C 4.789062 -0.984375 4.925781 -1.007812 4.96875 -1.03125 C 4.632812 -0.875 4.351562 -0.726562 4.125 -0.59375 C 3.90625 -0.457031 3.679688 -0.335938 3.453125 -0.234375 C 3.222656 -0.128906 2.957031 -0.046875 2.65625 0.015625 C 2.363281 0.0859375 1.972656 0.132812 1.484375 0.15625 C 1.515625 0.132812 1.5625 0.078125 1.625 -0.015625 L 1.421875 0.15625 C 1.316406 0.164062 1.210938 0.171875 1.109375 0.171875 C 1.003906 0.171875 0.898438 0.171875 0.796875 0.171875 L 1.765625 -0.5625 C 1.796875 -0.738281 1.828125 -0.929688 1.859375 -1.140625 C 1.890625 -1.359375 1.914062 -1.582031 1.9375 -1.8125 C 1.957031 -2.050781 1.976562 -2.289062 2 -2.53125 C 2.019531 -2.769531 2.035156 -3.003906 2.046875 -3.234375 C 2.085938 -3.765625 2.117188 -4.304688 2.140625 -4.859375 C 2.179688 -6.472656 2.207031 -8.0625 2.21875 -9.625 C 2.238281 -11.1875 2.25 -12.753906 2.25 -14.328125 L 3.4375 -16.25 C 3.476562 -15.5625 3.609375 -14.898438 3.828125 -14.265625 C 4.046875 -13.640625 4.332031 -13.023438 4.6875 -12.421875 C 5.050781 -11.828125 5.457031 -11.253906 5.90625 -10.703125 C 6.363281 -10.160156 6.847656 -9.625 7.359375 -9.09375 C 7.878906 -8.5625 8.40625 -8.039062 8.9375 -7.53125 C 9.46875 -7.03125 9.984375 -6.535156 10.484375 -6.046875 C 10.992188 -5.554688 11.472656 -5.066406 11.921875 -4.578125 C 12.378906 -4.085938 12.78125 -3.597656 13.125 -3.109375 C 13.226562 -4.648438 13.296875 -6.15625 13.328125 -7.625 C 13.359375 -9.09375 13.375 -10.554688 13.375 -12.015625 C 13.375 -12.671875 13.351562 -13.1875 13.3125 -13.5625 C 13.28125 -13.9375 13.226562 -14.25 13.15625 -14.5 C 13.070312 -14.476562 12.984375 -14.46875 12.890625 -14.46875 C 12.796875 -14.46875 12.695312 -14.46875 12.59375 -14.46875 C 12.34375 -14.46875 12.101562 -14.460938 11.875 -14.453125 C 11.644531 -14.441406 11.453125 -14.398438 11.296875 -14.328125 C 11.566406 -14.515625 11.828125 -14.6875 12.078125 -14.84375 C 12.328125 -15 12.578125 -15.128906 12.828125 -15.234375 C 13.078125 -15.347656 13.332031 -15.4375 13.59375 -15.5 C 13.851562 -15.570312 14.132812 -15.609375 14.4375 -15.609375 C 14.59375 -15.609375 14.769531 -15.601562 14.96875 -15.59375 C 15.175781 -15.582031 15.398438 -15.554688 15.640625 -15.515625 C 15.453125 -15.398438 15.269531 -15.289062 15.09375 -15.1875 C 14.925781 -15.09375 14.757812 -15.007812 14.59375 -14.9375 C 14.582031 -12.757812 14.519531 -10.617188 14.40625 -8.515625 C 14.300781 -6.410156 14.195312 -4.304688 14.09375 -2.203125 C 13.664062 -1.503906 13.359375 -0.929688 13.171875 -0.484375 C 12.984375 -0.0351562 12.875 0.234375 12.84375 0.328125 L 12.84375 0.375 C 12.519531 -0.363281 12.117188 -1.050781 11.640625 -1.6875 C 11.171875 -2.332031 10.648438 -2.945312 10.078125 -3.53125 C 9.515625 -4.113281 8.925781 -4.679688 8.3125 -5.234375 C 7.695312 -5.796875 7.09375 -6.363281 6.5 -6.9375 C 5.914062 -7.519531 5.359375 -8.125 4.828125 -8.75 C 4.296875 -9.382812 3.832031 -10.066406 3.4375 -10.796875 C 3.425781 -10.179688 3.414062 -9.5625 3.40625 -8.9375 C 3.394531 -8.320312 3.378906 -7.71875 3.359375 -7.125 C 3.347656 -6.539062 3.332031 -5.976562 3.3125 -5.4375 C 3.289062 -4.894531 3.269531 -4.398438 3.25 -3.953125 C 3.226562 -3.503906 3.203125 -3.109375 3.171875 -2.765625 C 3.140625 -2.421875 3.109375 -2.15625 3.078125 -1.96875 Z M 1.484375 0.15625 C 1.472656 0.164062 1.453125 0.171875 1.421875 0.171875 L 1.421875 0.15625 Z M 1.484375 0.15625 "/></g></g></g><g fill="#000000" fill-opacity="1"><g transform="translate(247.36781, 227.709646)"><g><path d="M 14.078125 -14.671875 C 13.953125 -14.503906 13.796875 -14.34375 13.609375 -14.1875 C 13.453125 -14.050781 13.257812 -13.90625 13.03125 -13.75 C 12.800781 -13.601562 12.53125 -13.472656 12.21875 -13.359375 C 12.320312 -13.484375 12.332031 -13.617188 12.25 -13.765625 C 12.164062 -13.910156 11.984375 -14.039062 11.703125 -14.15625 C 11.429688 -14.28125 11.054688 -14.378906 10.578125 -14.453125 C 10.109375 -14.535156 9.53125 -14.578125 8.84375 -14.578125 C 8.445312 -14.578125 8.019531 -14.535156 7.5625 -14.453125 C 7.101562 -14.367188 6.648438 -14.226562 6.203125 -14.03125 C 5.753906 -13.832031 5.320312 -13.566406 4.90625 -13.234375 C 4.488281 -12.910156 4.117188 -12.5 3.796875 -12 C 3.472656 -11.507812 3.21875 -10.921875 3.03125 -10.234375 C 2.84375 -9.554688 2.75 -8.773438 2.75 -7.890625 C 2.75 -6.992188 2.859375 -6.207031 3.078125 -5.53125 C 3.296875 -4.863281 3.582031 -4.285156 3.9375 -3.796875 C 4.300781 -3.304688 4.710938 -2.898438 5.171875 -2.578125 C 5.640625 -2.253906 6.113281 -1.992188 6.59375 -1.796875 C 7.082031 -1.597656 7.554688 -1.457031 8.015625 -1.375 C 8.484375 -1.300781 8.90625 -1.265625 9.28125 -1.265625 C 9.570312 -1.265625 9.878906 -1.28125 10.203125 -1.3125 C 10.484375 -1.332031 10.800781 -1.367188 11.15625 -1.421875 C 11.507812 -1.472656 11.878906 -1.546875 12.265625 -1.640625 C 12.359375 -1.742188 12.429688 -1.851562 12.484375 -1.96875 C 12.546875 -2.09375 12.597656 -2.207031 12.640625 -2.3125 C 12.671875 -2.414062 12.695312 -2.523438 12.71875 -2.640625 C 12.757812 -3.378906 12.773438 -4.109375 12.765625 -4.828125 C 12.765625 -5.546875 12.765625 -6.265625 12.765625 -6.984375 C 12.566406 -7.003906 12.351562 -7.023438 12.125 -7.046875 C 11.894531 -7.078125 11.671875 -7.09375 11.453125 -7.09375 C 11.273438 -7.09375 11.113281 -7.082031 10.96875 -7.0625 C 10.820312 -7.050781 10.691406 -7.019531 10.578125 -6.96875 C 10.984375 -7.21875 11.328125 -7.410156 11.609375 -7.546875 C 11.898438 -7.691406 12.132812 -7.800781 12.3125 -7.875 C 12.53125 -7.957031 12.707031 -8.015625 12.84375 -8.046875 C 13 -8.066406 13.191406 -8.082031 13.421875 -8.09375 C 13.660156 -8.113281 13.898438 -8.128906 14.140625 -8.140625 C 14.390625 -8.148438 14.632812 -8.160156 14.875 -8.171875 C 15.113281 -8.191406 15.320312 -8.222656 15.5 -8.265625 L 14.75 -7.734375 C 14.738281 -6.992188 14.722656 -6.375 14.703125 -5.875 C 14.679688 -5.382812 14.664062 -4.992188 14.65625 -4.703125 C 14.632812 -4.347656 14.613281 -4.066406 14.59375 -3.859375 C 14.59375 -3.628906 14.550781 -3.40625 14.46875 -3.1875 C 14.394531 -2.976562 14.28125 -2.769531 14.125 -2.5625 C 13.96875 -2.363281 13.757812 -2.164062 13.5 -1.96875 C 13.238281 -1.769531 12.921875 -1.566406 12.546875 -1.359375 C 11.972656 -0.972656 11.441406 -0.675781 10.953125 -0.46875 C 10.460938 -0.257812 10.035156 -0.109375 9.671875 -0.015625 C 9.242188 0.0976562 8.851562 0.164062 8.5 0.1875 C 7.445312 0.1875 6.453125 0.0351562 5.515625 -0.265625 C 4.585938 -0.578125 3.773438 -1.023438 3.078125 -1.609375 C 2.378906 -2.203125 1.828125 -2.925781 1.421875 -3.78125 C 1.015625 -4.632812 0.8125 -5.601562 0.8125 -6.6875 C 0.8125 -7.363281 0.875 -7.992188 1 -8.578125 C 1.132812 -9.160156 1.304688 -9.691406 1.515625 -10.171875 C 1.722656 -10.648438 1.957031 -11.082031 2.21875 -11.46875 C 2.476562 -11.863281 2.742188 -12.207031 3.015625 -12.5 C 3.296875 -12.800781 3.566406 -13.050781 3.828125 -13.25 C 4.085938 -13.445312 4.3125 -13.597656 4.5 -13.703125 C 4.6875 -13.804688 4.921875 -13.925781 5.203125 -14.0625 C 5.492188 -14.195312 5.8125 -14.332031 6.15625 -14.46875 C 6.507812 -14.613281 6.875 -14.753906 7.25 -14.890625 C 7.632812 -15.023438 8.023438 -15.144531 8.421875 -15.25 C 8.828125 -15.351562 9.21875 -15.4375 9.59375 -15.5 C 9.976562 -15.570312 10.34375 -15.609375 10.6875 -15.609375 C 11.445312 -15.609375 12.0625 -15.570312 12.53125 -15.5 C 13 -15.425781 13.351562 -15.335938 13.59375 -15.234375 C 13.84375 -15.128906 14 -15.023438 14.0625 -14.921875 C 14.125 -14.816406 14.128906 -14.734375 14.078125 -14.671875 Z M 14.078125 -14.671875 "/></g></g></g><g fill="#000000" fill-opacity="1"><g transform="translate(264.88126, 227.709646)"><g><path d="M 10.15625 -4.5 C 10.15625 -4.132812 10.035156 -3.757812 9.796875 -3.375 C 9.566406 -3 9.257812 -2.628906 8.875 -2.265625 C 8.5 -1.910156 8.070312 -1.570312 7.59375 -1.25 C 7.125 -0.925781 6.648438 -0.640625 6.171875 -0.390625 C 5.691406 -0.148438 5.226562 0.0390625 4.78125 0.1875 C 4.34375 0.332031 3.972656 0.410156 3.671875 0.421875 C 3.378906 0.429688 3.066406 0.40625 2.734375 0.34375 C 2.398438 0.28125 2.082031 0.195312 1.78125 0.09375 C 1.476562 0 1.207031 -0.0976562 0.96875 -0.203125 C 0.726562 -0.316406 0.566406 -0.414062 0.484375 -0.5 C 0.429688 -0.5625 0.390625 -0.625 0.359375 -0.6875 C 0.328125 -0.757812 0.3125 -0.832031 0.3125 -0.90625 C 0.3125 -0.988281 0.332031 -1.070312 0.375 -1.15625 C 0.425781 -1.25 0.503906 -1.34375 0.609375 -1.4375 C 0.710938 -1.519531 0.835938 -1.617188 0.984375 -1.734375 C 1.109375 -1.835938 1.269531 -1.96875 1.46875 -2.125 C 1.664062 -2.289062 1.910156 -2.488281 2.203125 -2.71875 C 2.097656 -2.601562 2.03125 -2.5 2 -2.40625 C 1.976562 -2.320312 1.96875 -2.238281 1.96875 -2.15625 C 1.976562 -2.070312 2.007812 -1.992188 2.0625 -1.921875 C 2.132812 -1.828125 2.257812 -1.722656 2.4375 -1.609375 C 2.613281 -1.492188 2.828125 -1.390625 3.078125 -1.296875 C 3.328125 -1.203125 3.609375 -1.117188 3.921875 -1.046875 C 4.242188 -0.984375 4.578125 -0.953125 4.921875 -0.953125 C 5.335938 -0.953125 5.75 -0.992188 6.15625 -1.078125 C 6.570312 -1.160156 6.945312 -1.296875 7.28125 -1.484375 C 7.613281 -1.679688 7.878906 -1.9375 8.078125 -2.25 C 8.285156 -2.570312 8.390625 -2.96875 8.390625 -3.4375 C 8.390625 -3.875 8.285156 -4.253906 8.078125 -4.578125 C 7.878906 -4.910156 7.613281 -5.207031 7.28125 -5.46875 C 6.957031 -5.738281 6.582031 -5.976562 6.15625 -6.1875 C 5.738281 -6.40625 5.3125 -6.617188 4.875 -6.828125 C 4.4375 -7.046875 4.003906 -7.265625 3.578125 -7.484375 C 3.160156 -7.710938 2.785156 -7.960938 2.453125 -8.234375 C 2.128906 -8.503906 1.863281 -8.8125 1.65625 -9.15625 C 1.457031 -9.507812 1.359375 -9.910156 1.359375 -10.359375 C 1.359375 -10.804688 1.460938 -11.238281 1.671875 -11.65625 C 1.890625 -12.082031 2.175781 -12.484375 2.53125 -12.859375 C 2.894531 -13.234375 3.304688 -13.578125 3.765625 -13.890625 C 4.222656 -14.210938 4.691406 -14.488281 5.171875 -14.71875 C 5.660156 -14.957031 6.132812 -15.140625 6.59375 -15.265625 C 7.0625 -15.398438 7.484375 -15.472656 7.859375 -15.484375 C 8.222656 -15.484375 8.570312 -15.460938 8.90625 -15.421875 C 9.238281 -15.390625 9.519531 -15.332031 9.75 -15.25 C 9.976562 -15.175781 10.132812 -15.078125 10.21875 -14.953125 C 10.3125 -14.835938 10.289062 -14.707031 10.15625 -14.5625 C 10.050781 -14.4375 9.921875 -14.304688 9.765625 -14.171875 C 9.617188 -14.054688 9.441406 -13.921875 9.234375 -13.765625 C 9.035156 -13.617188 8.785156 -13.457031 8.484375 -13.28125 C 8.546875 -13.375 8.578125 -13.453125 8.578125 -13.515625 C 8.585938 -13.585938 8.585938 -13.644531 8.578125 -13.6875 C 8.546875 -13.738281 8.515625 -13.78125 8.484375 -13.8125 C 8.429688 -13.851562 8.34375 -13.898438 8.21875 -13.953125 C 8.09375 -14.003906 7.9375 -14.050781 7.75 -14.09375 C 7.570312 -14.144531 7.363281 -14.1875 7.125 -14.21875 C 6.894531 -14.25 6.644531 -14.265625 6.375 -14.265625 C 5.957031 -14.265625 5.550781 -14.210938 5.15625 -14.109375 C 4.757812 -14.015625 4.410156 -13.859375 4.109375 -13.640625 C 3.804688 -13.429688 3.5625 -13.160156 3.375 -12.828125 C 3.195312 -12.503906 3.109375 -12.117188 3.109375 -11.671875 C 3.109375 -11.191406 3.207031 -10.769531 3.40625 -10.40625 C 3.613281 -10.039062 3.878906 -9.71875 4.203125 -9.4375 C 4.535156 -9.15625 4.914062 -8.898438 5.34375 -8.671875 C 5.769531 -8.453125 6.203125 -8.234375 6.640625 -8.015625 C 7.078125 -7.804688 7.503906 -7.59375 7.921875 -7.375 C 8.347656 -7.15625 8.722656 -6.910156 9.046875 -6.640625 C 9.378906 -6.367188 9.644531 -6.0625 9.84375 -5.71875 C 10.050781 -5.375 10.15625 -4.96875 10.15625 -4.5 Z M 10.15625 -4.5 "/></g></g></g><g fill="#000000" fill-opacity="1"><g transform="translate(277.516246, 227.709646)"><g><path d="M 4.0625 -0.3125 C 4.09375 -0.0078125 4.0625 0.28125 3.96875 0.5625 C 3.882812 0.851562 3.75 1.132812 3.5625 1.40625 C 3.375 1.6875 3.140625 1.953125 2.859375 2.203125 C 2.578125 2.453125 2.257812 2.6875 1.90625 2.90625 L 1.53125 2.84375 C 1.78125 2.675781 1.992188 2.484375 2.171875 2.265625 C 2.328125 2.078125 2.460938 1.847656 2.578125 1.578125 C 2.691406 1.316406 2.710938 1.015625 2.640625 0.671875 C 2.597656 0.429688 2.507812 0.238281 2.375 0.09375 C 2.238281 -0.0507812 2.070312 -0.160156 1.875 -0.234375 C 1.6875 -0.304688 1.484375 -0.347656 1.265625 -0.359375 C 1.054688 -0.378906 0.851562 -0.382812 0.65625 -0.375 L 2.40625 -1.9375 C 2.875 -1.851562 3.253906 -1.6875 3.546875 -1.4375 C 3.847656 -1.1875 4.019531 -0.8125 4.0625 -0.3125 Z M 4.0625 -0.3125 "/></g></g></g><g fill="#000000" fill-opacity="1"><g transform="translate(284.290697, 227.709646)"><g/></g></g><g fill="#000000" fill-opacity="1"><g transform="translate(291.374709, 227.709646)"><g><path d="M 6.171875 -15.8125 C 5.835938 -15.59375 5.535156 -15.40625 5.265625 -15.25 C 4.992188 -15.09375 4.738281 -14.96875 4.5 -14.875 C 4.46875 -13.582031 4.4375 -12.425781 4.40625 -11.40625 C 4.382812 -10.394531 4.363281 -9.492188 4.34375 -8.703125 C 4.332031 -7.921875 4.320312 -7.242188 4.3125 -6.671875 C 4.300781 -6.097656 4.289062 -5.609375 4.28125 -5.203125 C 4.257812 -4.253906 4.253906 -3.601562 4.265625 -3.25 C 4.253906 -2.988281 4.222656 -2.738281 4.171875 -2.5 C 4.128906 -2.289062 4.0625 -2.070312 3.96875 -1.84375 C 3.875 -1.613281 3.75 -1.414062 3.59375 -1.25 C 4.019531 -1.238281 4.414062 -1.234375 4.78125 -1.234375 C 5.15625 -1.234375 5.515625 -1.234375 5.859375 -1.234375 C 6.835938 -1.234375 7.640625 -1.242188 8.265625 -1.265625 C 8.898438 -1.296875 9.40625 -1.332031 9.78125 -1.375 C 10.164062 -1.414062 10.4375 -1.453125 10.59375 -1.484375 C 10.75 -1.515625 10.835938 -1.535156 10.859375 -1.546875 C 10.484375 -1.285156 10.171875 -1.0625 9.921875 -0.875 C 9.671875 -0.695312 9.445312 -0.546875 9.25 -0.421875 C 9.0625 -0.304688 8.875 -0.21875 8.6875 -0.15625 C 8.5 -0.101562 8.28125 -0.078125 8.03125 -0.078125 L 6.375 -0.078125 C 5.914062 -0.078125 5.414062 -0.078125 4.875 -0.078125 C 4.332031 -0.078125 3.816406 -0.0703125 3.328125 -0.0625 C 2.835938 -0.0507812 2.398438 -0.03125 2.015625 0 C 1.628906 0.0195312 1.351562 0.046875 1.1875 0.078125 C 1.382812 -0.0859375 1.5625 -0.269531 1.71875 -0.46875 C 1.882812 -0.664062 2.023438 -0.910156 2.140625 -1.203125 C 2.265625 -1.492188 2.359375 -1.84375 2.421875 -2.25 C 2.484375 -2.664062 2.515625 -3.160156 2.515625 -3.734375 L 2.515625 -14.515625 C 2.296875 -14.492188 2.03125 -14.460938 1.71875 -14.421875 C 1.40625 -14.390625 1.050781 -14.347656 0.65625 -14.296875 C 1.039062 -14.609375 1.382812 -14.84375 1.6875 -15 C 2 -15.164062 2.265625 -15.289062 2.484375 -15.375 C 2.742188 -15.457031 2.972656 -15.503906 3.171875 -15.515625 C 3.421875 -15.515625 3.695312 -15.519531 4 -15.53125 C 4.300781 -15.539062 4.59375 -15.554688 4.875 -15.578125 C 5.15625 -15.609375 5.410156 -15.644531 5.640625 -15.6875 C 5.878906 -15.726562 6.054688 -15.769531 6.171875 -15.8125 Z M 10.859375 -1.546875 L 10.859375 -1.5625 C 10.867188 -1.5625 10.878906 -1.5625 10.890625 -1.5625 Z M 10.859375 -1.546875 "/></g></g></g><g fill="#000000" fill-opacity="1"><g transform="translate(303.401235, 227.709646)"><g><path d="M 6.171875 -15.8125 C 5.835938 -15.59375 5.535156 -15.40625 5.265625 -15.25 C 4.992188 -15.09375 4.738281 -14.96875 4.5 -14.875 C 4.46875 -13.582031 4.4375 -12.425781 4.40625 -11.40625 C 4.382812 -10.394531 4.363281 -9.492188 4.34375 -8.703125 C 4.332031 -7.921875 4.320312 -7.242188 4.3125 -6.671875 C 4.300781 -6.097656 4.289062 -5.609375 4.28125 -5.203125 C 4.257812 -4.253906 4.253906 -3.601562 4.265625 -3.25 C 4.253906 -2.988281 4.222656 -2.738281 4.171875 -2.5 C 4.128906 -2.289062 4.0625 -2.070312 3.96875 -1.84375 C 3.875 -1.613281 3.75 -1.414062 3.59375 -1.25 C 4.019531 -1.238281 4.414062 -1.234375 4.78125 -1.234375 C 5.15625 -1.234375 5.515625 -1.234375 5.859375 -1.234375 C 6.835938 -1.234375 7.640625 -1.242188 8.265625 -1.265625 C 8.898438 -1.296875 9.40625 -1.332031 9.78125 -1.375 C 10.164062 -1.414062 10.4375 -1.453125 10.59375 -1.484375 C 10.75 -1.515625 10.835938 -1.535156 10.859375 -1.546875 C 10.484375 -1.285156 10.171875 -1.0625 9.921875 -0.875 C 9.671875 -0.695312 9.445312 -0.546875 9.25 -0.421875 C 9.0625 -0.304688 8.875 -0.21875 8.6875 -0.15625 C 8.5 -0.101562 8.28125 -0.078125 8.03125 -0.078125 L 6.375 -0.078125 C 5.914062 -0.078125 5.414062 -0.078125 4.875 -0.078125 C 4.332031 -0.078125 3.816406 -0.0703125 3.328125 -0.0625 C 2.835938 -0.0507812 2.398438 -0.03125 2.015625 0 C 1.628906 0.0195312 1.351562 0.046875 1.1875 0.078125 C 1.382812 -0.0859375 1.5625 -0.269531 1.71875 -0.46875 C 1.882812 -0.664062 2.023438 -0.910156 2.140625 -1.203125 C 2.265625 -1.492188 2.359375 -1.84375 2.421875 -2.25 C 2.484375 -2.664062 2.515625 -3.160156 2.515625 -3.734375 L 2.515625 -14.515625 C 2.296875 -14.492188 2.03125 -14.460938 1.71875 -14.421875 C 1.40625 -14.390625 1.050781 -14.347656 0.65625 -14.296875 C 1.039062 -14.609375 1.382812 -14.84375 1.6875 -15 C 2 -15.164062 2.265625 -15.289062 2.484375 -15.375 C 2.742188 -15.457031 2.972656 -15.503906 3.171875 -15.515625 C 3.421875 -15.515625 3.695312 -15.519531 4 -15.53125 C 4.300781 -15.539062 4.59375 -15.554688 4.875 -15.578125 C 5.15625 -15.609375 5.410156 -15.644531 5.640625 -15.6875 C 5.878906 -15.726562 6.054688 -15.769531 6.171875 -15.8125 Z M 10.859375 -1.546875 L 10.859375 -1.5625 C 10.867188 -1.5625 10.878906 -1.5625 10.890625 -1.5625 Z M 10.859375 -1.546875 "/></g></g></g><g fill="#000000" fill-opacity="1"><g transform="translate(315.427761, 227.709646)"><g><path d="M 14.078125 -14.671875 C 13.953125 -14.503906 13.796875 -14.34375 13.609375 -14.1875 C 13.453125 -14.050781 13.257812 -13.90625 13.03125 -13.75 C 12.800781 -13.601562 12.53125 -13.472656 12.21875 -13.359375 C 12.320312 -13.484375 12.332031 -13.617188 12.25 -13.765625 C 12.164062 -13.910156 11.984375 -14.039062 11.703125 -14.15625 C 11.429688 -14.28125 11.054688 -14.378906 10.578125 -14.453125 C 10.109375 -14.535156 9.53125 -14.578125 8.84375 -14.578125 C 8.445312 -14.578125 8.019531 -14.535156 7.5625 -14.453125 C 7.101562 -14.367188 6.648438 -14.226562 6.203125 -14.03125 C 5.753906 -13.832031 5.320312 -13.566406 4.90625 -13.234375 C 4.488281 -12.910156 4.117188 -12.5 3.796875 -12 C 3.472656 -11.507812 3.21875 -10.921875 3.03125 -10.234375 C 2.84375 -9.554688 2.75 -8.773438 2.75 -7.890625 C 2.75 -6.992188 2.859375 -6.207031 3.078125 -5.53125 C 3.296875 -4.863281 3.582031 -4.285156 3.9375 -3.796875 C 4.300781 -3.304688 4.710938 -2.898438 5.171875 -2.578125 C 5.640625 -2.253906 6.113281 -1.992188 6.59375 -1.796875 C 7.082031 -1.597656 7.554688 -1.457031 8.015625 -1.375 C 8.484375 -1.300781 8.90625 -1.265625 9.28125 -1.265625 C 9.71875 -1.273438 10.171875 -1.304688 10.640625 -1.359375 C 11.046875 -1.410156 11.492188 -1.484375 11.984375 -1.578125 C 12.472656 -1.679688 12.953125 -1.820312 13.421875 -2 C 12.722656 -1.445312 12.078125 -1.023438 11.484375 -0.734375 C 10.898438 -0.441406 10.382812 -0.222656 9.9375 -0.078125 C 9.414062 0.078125 8.9375 0.164062 8.5 0.1875 C 7.445312 0.1875 6.453125 0.0351562 5.515625 -0.265625 C 4.585938 -0.578125 3.773438 -1.023438 3.078125 -1.609375 C 2.378906 -2.203125 1.828125 -2.925781 1.421875 -3.78125 C 1.015625 -4.632812 0.8125 -5.601562 0.8125 -6.6875 C 0.8125 -7.363281 0.875 -7.992188 1 -8.578125 C 1.132812 -9.160156 1.304688 -9.691406 1.515625 -10.171875 C 1.722656 -10.648438 1.957031 -11.082031 2.21875 -11.46875 C 2.476562 -11.863281 2.742188 -12.207031 3.015625 -12.5 C 3.296875 -12.800781 3.566406 -13.050781 3.828125 -13.25 C 4.085938 -13.445312 4.3125 -13.597656 4.5 -13.703125 C 4.6875 -13.804688 4.921875 -13.925781 5.203125 -14.0625 C 5.492188 -14.195312 5.8125 -14.332031 6.15625 -14.46875 C 6.507812 -14.613281 6.875 -14.753906 7.25 -14.890625 C 7.632812 -15.023438 8.023438 -15.144531 8.421875 -15.25 C 8.828125 -15.351562 9.21875 -15.4375 9.59375 -15.5 C 9.976562 -15.570312 10.34375 -15.609375 10.6875 -15.609375 C 11.445312 -15.609375 12.0625 -15.570312 12.53125 -15.5 C 13 -15.425781 13.351562 -15.335938 13.59375 -15.234375 C 13.84375 -15.128906 14 -15.023438 14.0625 -14.921875 C 14.125 -14.816406 14.128906 -14.734375 14.078125 -14.671875 Z M 14.078125 -14.671875 "/></g></g></g></svg>