<?xml version="1.0" encoding="UTF-8"?>
<svg version="1.1" xmlns="http://www.w3.org/2000/svg" width="500" height="500">
<path d="M0 0 C165 0 330 0 500 0 C500 165 500 330 500 500 C335 500 170 500 0 500 C0 335 0 170 0 0 Z " fill="#FEFEFE" transform="translate(0,0)"/>
<path d="M0 0 C0.33 0 0.66 0 1 0 C1.00586624 0.73182999 1.01173248 1.46365997 1.01777649 2.21766663 C1.09781076 11.83282941 1.19835963 21.44768467 1.3125 31.0625 C1.3218092 31.85104622 1.33111839 32.63959244 1.34070969 33.452034 C1.63268458 57.69948272 2.33767521 81.90000634 3.45853424 106.12285614 C5.31245139 146.28307951 5.31245139 146.28307951 5.42086792 163.831604 C5.43174441 165.5357202 5.44899843 167.2398107 5.47341919 168.94378662 C5.67212686 184.40825565 5.67212686 184.40825565 1 191 C-1.578125 193.53125 -1.578125 193.53125 -4.25 195.5 C-5.58804688 196.50546875 -5.58804688 196.50546875 -6.953125 197.53125 C-7.62859375 198.0159375 -8.3040625 198.500625 -9 199 C-6.22867983 198.69140975 -3.45800014 198.3782967 -0.6875 198.0625 C0.49102539 197.93198242 0.49102539 197.93198242 1.69335938 197.79882812 C2.45068359 197.71181641 3.20800781 197.62480469 3.98828125 197.53515625 C4.68477783 197.456604 5.38127441 197.37805176 6.09887695 197.29711914 C8.21648234 197.02003217 8.21648234 197.02003217 11 196 C13.33299825 195.96045766 15.66708189 195.95598268 18 196 C16.39565172 199.20869655 13.08408973 199.75172575 9.875 200.9375 C9.15795898 201.20256348 8.44091797 201.46762695 7.70214844 201.74072266 C-3.33523164 205.68056851 -14.24583958 207.59099131 -26 207 C-25.52269162 205.5410574 -25.04308958 204.08286504 -24.5625 202.625 C-24.29566406 201.81289062 -24.02882813 201.00078125 -23.75390625 200.1640625 C-23 198 -23 198 -22 196 C-21.89590186 193.87371828 -21.85881764 191.74405123 -21.85180664 189.61523438 C-21.84922033 188.9604863 -21.84663403 188.30573822 -21.84396935 187.63114929 C-21.83850631 185.45196407 -21.84220383 183.27293399 -21.84765625 181.09375 C-21.8483568 180.33948227 -21.84905735 179.58521454 -21.84977913 178.80809021 C-21.87675186 162.09415821 -22.54005024 145.42398757 -23.33239746 128.73156738 C-23.50859234 124.99054686 -23.67700256 121.24917727 -23.84570312 117.5078125 C-24.04362095 113.12091447 -24.24205153 108.73405076 -24.44564819 104.34741211 C-24.91018863 94.29761447 -25.31415576 84.24658261 -25.63609314 74.19104004 C-25.82657335 68.73285855 -26.22619029 63.40744164 -27 58 C-27.44146362 58.73428223 -27.44146362 58.73428223 -27.8918457 59.48339844 C-34.76823236 70.86951273 -41.94166386 82.01520034 -49.4375 93 C-49.84401794 93.59632233 -50.25053589 94.19264465 -50.66937256 94.80703735 C-54.11530721 99.86057996 -57.56886677 104.90890161 -61.0234375 109.95654297 C-71.58868831 125.43452581 -81.48853441 141.2157927 -89.5 158.1875 C-89.83112793 158.88875 -90.16225586 159.59 -90.50341797 160.3125 C-92.1629651 163.91440261 -93.4244369 167.44275108 -94.5 171.25 C-97.25322346 178.51751777 -105.02632278 183.00862468 -111.02050781 187.50634766 C-113.72938794 189.55036944 -116.36235519 191.67744367 -119 193.8125 C-120.33279897 194.87567023 -121.66588551 195.93848102 -123 197 C-124.61533814 194.57699278 -125.6380905 192.64709286 -126.70703125 189.9921875 C-134.55060888 170.9032964 -144.27050325 152.87152754 -154.19848633 134.80102539 C-158.71139603 126.57556463 -163.10944409 118.29114579 -167.5 110 C-173.01091183 99.59318499 -178.56254365 89.21245485 -184.24609375 78.8984375 C-184.68695313 78.09664063 -185.1278125 77.29484375 -185.58203125 76.46875 C-186.14241089 75.45458008 -186.14241089 75.45458008 -186.71411133 74.41992188 C-188.54221884 70.97959499 -190.26912217 67.49003919 -192 64 C-192.03536362 64.67794113 -192.07072723 65.35588226 -192.10716248 66.05436707 C-192.47598422 73.11110715 -192.84991286 80.16756348 -193.22680664 87.22387695 C-193.36678934 89.85727114 -193.50547026 92.49073487 -193.64282227 95.12426758 C-193.84048649 98.90985855 -194.04283256 102.69517468 -194.24609375 106.48046875 C-194.3065538 107.65772018 -194.36701385 108.83497162 -194.42930603 110.04789734 C-194.48929276 111.14866104 -194.54927948 112.24942474 -194.61108398 113.38354492 C-194.66215805 114.34951096 -194.71323212 115.31547699 -194.76585388 116.31071472 C-194.99461826 118.93818804 -195.44575538 121.42398191 -196 124 C-196.14438592 125.32828569 -196.2644834 126.65945131 -196.359375 127.9921875 C-197.24170068 139.13692572 -198.6765493 150.15183673 -200.4375 161.1875 C-200.54082642 161.84949402 -200.64415283 162.51148804 -200.75061035 163.19354248 C-201.8593062 170.25594818 -203.08833312 177.07934777 -205.43383789 183.8449707 C-206.21174514 186.43462313 -206.21174514 186.43462313 -206 191 C-198.41 191 -190.82 191 -183 191 C-193.30300777 201.30300777 -206.16781218 207.19809228 -220.875 207.25 C-222.58422313 207.18752187 -224.29334101 207.11252697 -226 207 C-225.0800414 204.65532676 -224.16024396 202.33395381 -223.0703125 200.0625 C-220.47884233 194.40838326 -219.18114426 188.66033823 -218.03515625 182.5859375 C-217.86211472 181.67049164 -217.68907318 180.75504578 -217.51078796 179.81185913 C-215.74470263 170.12108449 -214.62334127 160.38116711 -213.61694336 150.58642578 C-213.31041868 147.60475432 -212.99122057 144.62464364 -212.66992188 141.64453125 C-210.89783289 125.02076764 -209.87171393 108.46393442 -209.44775391 91.75317383 C-209.24958295 84.09813898 -208.92686106 76.49020616 -208.23193359 68.86206055 C-207.91364808 64.93441725 -207.78327996 61.00949304 -207.66113281 57.0715332 C-207.5227153 52.76106102 -207.31700107 48.45410958 -207.11962891 44.14599609 C-207.00901473 41.23706892 -206.97180646 38.33644459 -206.94921875 35.42578125 C-206.65891565 24.8978503 -204.71202188 18.84863673 -196.96191406 11.4855957 C-195.84790331 10.47636339 -194.72588268 9.47588682 -193.59521484 8.48535156 C-191.95521947 6.95830353 -190.55688063 5.355073 -189.14453125 3.6171875 C-188.43683594 2.75351562 -187.72914063 1.88984375 -187 1 C-186.67 1 -186.34 1 -186 1 C-185.85304688 2.12535156 -185.85304688 2.12535156 -185.703125 3.2734375 C-185.55359375 4.29695313 -185.4040625 5.32046875 -185.25 6.375 C-185.11078125 7.37273438 -184.9715625 8.37046875 -184.828125 9.3984375 C-182.9142187 17.72212435 -179.00621895 25.20120193 -175 32.6875 C-168.76927481 44.47600803 -162.68444418 56.3362931 -156.61816406 68.21005249 C-151.7015902 77.83198672 -146.73834286 87.42603958 -141.69273376 96.98098755 C-136.99521321 105.88561457 -132.40803013 114.84620617 -127.82006836 123.80761719 C-126.70259338 125.98941211 -125.5838619 128.17055871 -124.46484375 130.3515625 C-124.10176117 131.06088928 -123.73867859 131.77021606 -123.36459351 132.5010376 C-121.44967117 136.22961463 -119.5033712 139.93764241 -117.50830078 143.62402344 C-117.09971329 144.38218353 -116.69112579 145.14034363 -116.27015686 145.92147827 C-115.49312904 147.35899303 -114.71050957 148.79350586 -113.92112732 150.22427368 C-111.65605619 154.41965761 -110.1479373 158.36842058 -109 163 C-108.34 163 -107.68 163 -107 163 C-106.72776611 162.26982666 -106.45553223 161.53965332 -106.17504883 160.78735352 C-105.04694574 158.11136081 -103.76594328 155.84211484 -102.19921875 153.40234375 C-101.64097412 152.52892334 -101.08272949 151.65550293 -100.50756836 150.75561523 C-99.9069458 149.82563721 -99.30632324 148.89565918 -98.6875 147.9375 C-97.75079468 146.47582397 -97.75079468 146.47582397 -96.79516602 144.98461914 C-93.23183821 139.4331261 -89.63762226 133.90209693 -86.03100586 128.37866211 C-70.26926248 104.23255026 -55.34609015 79.60362759 -42.0625 54 C-41.744021 53.38653717 -41.42554199 52.77307434 -41.09741211 52.14102173 C-37.28927028 44.77637362 -33.79640118 37.34819212 -30.625 29.6875 C-27.60307973 22.58329489 -24.29299867 18.43703884 -18 14 C-16.55700402 12.89870271 -15.1186286 11.79133856 -13.68359375 10.6796875 C-9.98668211 7.81859936 -6.26766604 4.98919385 -2.53125 2.17993164 C-1.04111817 1.08395379 -1.04111817 1.08395379 0 0 Z " fill="#030303" transform="translate(299,54)"/>
<path d="M0 0 C1.15733643 0.02094727 2.31467285 0.04189453 3.50708008 0.06347656 C5.3875 0.0828125 5.3875 0.0828125 7.3059082 0.10253906 C8.61624023 0.13605469 9.92657227 0.16957031 11.27661133 0.20410156 C12.61187143 0.22416849 13.94716016 0.24241894 15.2824707 0.25878906 C18.55207279 0.30600353 21.82023325 0.37184972 25.08911133 0.45410156 C25.18616539 17.85066947 25.24986643 35.24976166 24.77661133 52.64160156 C24.74289429 54.39089966 24.74289429 54.39089966 24.70849609 56.17553711 C24.33365845 67.73940592 21.10361949 76.26748718 14.08911133 85.45410156 C25.96485602 85.0181565 37.4074961 83.62647211 49.08911133 81.45410156 C45.70923748 85.14201455 41.92030327 87.77741174 37.77661133 90.51660156 C37.13788086 90.95037109 36.49915039 91.38414062 35.84106445 91.83105469 C29.13589448 96.29437452 23.35754276 98.95744806 15.15161133 98.70410156 C14.0631189 98.68766602 14.0631189 98.68766602 12.95263672 98.67089844 C5.31906296 98.51929805 -2.29891608 98.02781686 -9.91088867 97.45410156 C-8.56039819 94.55376249 -6.9690775 92.18079 -5.03588867 89.64160156 C2.13804878 78.84005698 2.6910485 65.90033949 2.69848633 53.33300781 C2.71351825 51.85227193 2.73025559 50.37155248 2.74859619 48.89085388 C2.79172128 45.04905297 2.81214458 41.20747782 2.82733154 37.36547852 C2.84710395 33.42288148 2.88904892 29.48052148 2.92895508 25.53808594 C3.00366049 17.8434891 3.05430956 10.14899357 3.08911133 2.45410156 C0.11911133 3.11410156 -2.85088867 3.77410156 -5.91088867 4.45410156 C-4.22070078 1.41544339 -3.51207617 0.54788742 0 0 Z " fill="#050505" transform="translate(223.910888671875,312.5458984375)"/>
<path d="M0 0 C6.93 0 13.86 0 21 0 C21.06806529 8.04147817 21.12298166 16.08272834 21.15543652 24.12441826 C21.17102157 27.8594225 21.19212684 31.59421763 21.22631836 35.32910156 C21.25917009 38.94067535 21.2769067 42.55204934 21.28463173 46.16376114 C21.29012936 47.5343248 21.30086348 48.90487885 21.31719017 50.27535629 C21.44345834 61.32459 20.13754071 70.17304715 14.3125 79.625 C13.37857422 81.16027344 13.37857422 81.16027344 12.42578125 82.7265625 C11.95527344 83.47679687 11.48476563 84.22703125 11 85 C22.70186042 83.88327423 34.36122219 82.65764411 46 81 C42.02945267 84.27836379 37.89797198 87.20098162 33.625 90.0625 C32.99078125 90.49626953 32.3565625 90.93003906 31.703125 91.37695312 C24.9939863 95.87481448 19.22751804 98.50259504 11 98.25 C9.90764038 98.23356445 9.90764038 98.23356445 8.79321289 98.21679688 C1.5139882 98.07198367 -5.74472019 97.59140563 -13 97 C-12.22011719 96.39929688 -11.44023437 95.79859375 -10.63671875 95.1796875 C-3.53091621 89.3055574 -1.85118663 81.79135805 -1 73 C-0.89256427 70.46489397 -0.82551169 67.92781917 -0.79467773 65.390625 C-0.77982834 64.3208567 -0.77982834 64.3208567 -0.76467896 63.22947693 C-0.73342344 60.90301685 -0.70845091 58.57653645 -0.68359375 56.25 C-0.66299305 54.62475087 -0.64199583 52.99950671 -0.62062073 51.37426758 C-0.56572153 47.11977196 -0.516172 42.86523061 -0.46777344 38.61065674 C-0.41732195 34.25992821 -0.36175997 29.9092652 -0.30664062 25.55859375 C-0.19945298 17.03911666 -0.09839536 8.51958318 0 0 Z " fill="#030303" transform="translate(344,313)"/>
<path d="M0 0 C-2.62214328 1.50519387 -5.24744208 3.00431319 -7.875 4.5 C-8.62136719 4.92925781 -9.36773437 5.35851562 -10.13671875 5.80078125 C-10.85214844 6.20683594 -11.56757813 6.61289063 -12.3046875 7.03125 C-12.96452637 7.40830078 -13.62436523 7.78535156 -14.30419922 8.17382812 C-16 9 -16 9 -18 9 C-17.99476318 10.01312256 -17.98952637 11.02624512 -17.98413086 12.07006836 C-17.96588766 15.86644592 -17.95449809 19.66281969 -17.94506836 23.45922852 C-17.94007197 25.09530288 -17.93327261 26.73137285 -17.92456055 28.36743164 C-17.91228747 30.73324677 -17.90672462 33.09900234 -17.90234375 35.46484375 C-17.89718246 36.18397446 -17.89202118 36.90310516 -17.88670349 37.64402771 C-17.88613642 42.89986107 -18.410943 47.69848699 -19 53 C-26.59 53 -34.18 53 -42 53 C-42 40.13 -42 27.26 -42 14 C-47.28 14.66 -52.56 15.32 -58 16 C-59.65 16 -61.3 16 -63 16 C-59.81552229 12.4669725 -56.23902377 10.17221497 -52.125 7.875 C-51.52558594 7.52824219 -50.92617187 7.18148437 -50.30859375 6.82421875 C-43.07677135 2.72984642 -37.20896101 1.71046864 -29.0625 1.5 C-21.20694966 1.2270378 -13.59370078 0.55483478 -5.8359375 -0.6953125 C-3 -1 -3 -1 0 0 Z " fill="#070707" transform="translate(269,223)"/>
<path d="M0 0 C-2.24664262 1.31855095 -4.49697306 2.62993972 -6.75 3.9375 C-7.38421875 4.31068359 -8.0184375 4.68386719 -8.671875 5.06835938 C-11.83665084 6.89799541 -14.42165447 8.10541362 -18 9 C-18 23.52 -18 38.04 -18 53 C-25.59 53 -33.18 53 -41 53 C-41 40.13 -41 27.26 -41 14 C-46.28 14.66 -51.56 15.32 -57 16 C-58.65 16 -60.3 16 -62 16 C-55.71306749 8.87480982 -46.20228841 2.90632201 -36.63305664 1.70214844 C-34.06604028 1.55359951 -31.50840264 1.48057718 -28.9375 1.4375 C-21.11445734 1.20160857 -13.56029023 0.54945074 -5.8359375 -0.6953125 C-3 -1 -3 -1 0 0 Z " fill="#040404" transform="translate(385,223)"/>
<path d="M0 0 C3.13051597 2.72916777 3.90170097 4.32419415 4.5 8.4375 C3.82578672 13.24126965 2.08448038 16.41867006 -1.8125 19.375 C-5.04668866 20.2990539 -7.65639578 20.35824331 -11 20 C-14.48985045 17.24485491 -15.83362688 15.21214701 -16.4375 10.8125 C-15.8661751 5.83381162 -13.74961876 3.22959864 -10 0 C-6.16652698 -1.27782434 -3.91272241 -0.96101954 0 0 Z " fill="#F8F8F8" transform="translate(247,284)"/>
<path d="M0 0 C5.50803871 0.03156469 8.40093334 1.40093334 12.3125 5.3125 C12.66200246 10.55503687 12.88303577 14.14687493 9.3125 18.3125 C5.66813079 20.82885017 2.92982332 21.4616158 -1.3984375 21.38671875 C-2.2032959 21.37600342 -3.0081543 21.36528809 -3.83740234 21.35424805 C-4.44793457 21.34047119 -5.0584668 21.32669434 -5.6875 21.3125 C-5.71638146 18.00001813 -5.73425799 14.68756833 -5.75 11.375 C-5.75837891 10.42947266 -5.76675781 9.48394531 -5.77539062 8.50976562 C-5.77861328 7.61064453 -5.78183594 6.71152344 -5.78515625 5.78515625 C-5.79039307 4.95250244 -5.79562988 4.11984863 -5.80102539 3.26196289 C-5.58053914 -0.52423642 -3.28697709 0.09335211 0 0 Z " fill="#F4F4F4" transform="translate(278.6875,282.6875)"/>
<path d="M0 0 C1.2065625 0.0309375 1.2065625 0.0309375 2.4375 0.0625 C2.1075 2.7025 1.7775 5.3425 1.4375 8.0625 C4.7375 8.0625 8.0375 8.0625 11.4375 8.0625 C11.4375 6.0825 11.4375 4.1025 11.4375 2.0625 C10.7775 1.7325 10.1175 1.4025 9.4375 1.0625 C10.4375 0.0625 10.4375 0.0625 13 0 C14.2065625 0.0309375 14.2065625 0.0309375 15.4375 0.0625 C15.34210938 1.33867187 15.24671875 2.61484375 15.1484375 3.9296875 C15.0359049 5.59892112 14.92395593 7.26819415 14.8125 8.9375 C14.74804688 9.77925781 14.68359375 10.62101562 14.6171875 11.48828125 C14.565625 12.29394531 14.5140625 13.09960938 14.4609375 13.9296875 C14.40856934 14.67331543 14.35620117 15.41694336 14.30224609 16.18310547 C14.24927634 18.31062689 14.24927634 18.31062689 16.4375 20.0625 C16.1075 20.3925 15.7775 20.7225 15.4375 21.0625 C13.7875 21.0625 12.1375 21.0625 10.4375 21.0625 C10.7675 17.4325 11.0975 13.8025 11.4375 10.0625 C7.8075 10.0625 4.1775 10.0625 0.4375 10.0625 C0.4375 13.0325 0.4375 16.0025 0.4375 19.0625 C1.4275 19.3925 2.4175 19.7225 3.4375 20.0625 C3.1075 20.3925 2.7775 20.7225 2.4375 21.0625 C0.7875 21.0625 -0.8625 21.0625 -2.5625 21.0625 C-2.2325 14.7925 -1.9025 8.5225 -1.5625 2.0625 C-2.2225 1.7325 -2.8825 1.4025 -3.5625 1.0625 C-2.5625 0.0625 -2.5625 0.0625 0 0 Z " fill="#4A4A4A" transform="translate(127.5625,282.9375)"/>
<path d="M0 0 C1.2065625 0.0309375 1.2065625 0.0309375 2.4375 0.0625 C2.1075 2.7025 1.7775 5.3425 1.4375 8.0625 C4.7375 8.0625 8.0375 8.0625 11.4375 8.0625 C11.4375 6.0825 11.4375 4.1025 11.4375 2.0625 C10.7775 1.7325 10.1175 1.4025 9.4375 1.0625 C9.7675 0.7325 10.0975 0.4025 10.4375 0.0625 C12.0875 0.0625 13.7375 0.0625 15.4375 0.0625 C14.7775 6.3325 14.1175 12.6025 13.4375 19.0625 C14.0975 19.3925 14.7575 19.7225 15.4375 20.0625 C13.7875 20.3925 12.1375 20.7225 10.4375 21.0625 C10.7675 17.4325 11.0975 13.8025 11.4375 10.0625 C7.8075 10.0625 4.1775 10.0625 0.4375 10.0625 C0.4375 13.0325 0.4375 16.0025 0.4375 19.0625 C1.0975 19.3925 1.7575 19.7225 2.4375 20.0625 C0.7875 20.3925 -0.8625 20.7225 -2.5625 21.0625 C-2.2325 14.7925 -1.9025 8.5225 -1.5625 2.0625 C-2.2225 1.7325 -2.8825 1.4025 -3.5625 1.0625 C-2.5625 0.0625 -2.5625 0.0625 0 0 Z " fill="#454545" transform="translate(210.5625,282.9375)"/>
<path d="M0 0 C0.99 0.33 1.98 0.66 3 1 C2.91308261 3.77236494 2.80622639 6.54147078 2.6875 9.3125 C2.66494141 10.09818359 2.64238281 10.88386719 2.61914062 11.69335938 C2.58369141 12.45068359 2.54824219 13.20800781 2.51171875 13.98828125 C2.48553467 14.68477783 2.45935059 15.38127441 2.43237305 16.09887695 C1.88776232 18.49350359 0.84170838 19.43272547 -1 21 C-2.0847278 19.77206376 -3.16770815 18.5425838 -4.25 17.3125 C-4.85328125 16.62800781 -5.4565625 15.94351562 -6.078125 15.23828125 C-8.10891383 12.87315524 -10.05260155 10.43424806 -12 8 C-12.33 12.29 -12.66 16.58 -13 21 C-13.66 21 -14.32 21 -15 21 C-14.67 14.4 -14.34 7.8 -14 1 C-13.34 1 -12.68 1 -12 1 C-10.921875 2.5390625 -10.921875 2.5390625 -9.75 4.625 C-7.29300538 8.74688351 -4.505877 11.73871907 -1 15 C-1.01160156 14.00097656 -1.02320313 13.00195312 -1.03515625 11.97265625 C-1.04417969 10.68230469 -1.05320312 9.39195312 -1.0625 8.0625 C-1.07410156 6.77472656 -1.08570313 5.48695313 -1.09765625 4.16015625 C-1 1 -1 1 0 0 Z " fill="#171717" transform="translate(323,283)"/>
<path d="M0 0 C5.50803871 0.03156469 8.40093334 1.40093334 12.3125 5.3125 C12.67265175 10.71477629 12.67160997 13.83368671 9.3125 18.3125 C8.6525 17.9825 7.9925 17.6525 7.3125 17.3125 C7.663125 16.796875 8.01375 16.28125 8.375 15.75 C9.71952579 12.25423294 9.22628144 9.90235565 8.3125 6.3125 C5.04126217 2.53799481 2.68411556 3.07987365 -2.6875 2.3125 C-2.6875 7.9225 -2.6875 13.5325 -2.6875 19.3125 C-0.0475 19.3125 2.5925 19.3125 5.3125 19.3125 C3.3125 21.3125 3.3125 21.3125 1.1484375 21.5078125 C0.33632813 21.48460937 -0.47578125 21.46140625 -1.3125 21.4375 C-2.12976563 21.41945313 -2.94703125 21.40140625 -3.7890625 21.3828125 C-4.41554688 21.35960937 -5.04203125 21.33640625 -5.6875 21.3125 C-5.71638146 18.00001813 -5.73425799 14.68756833 -5.75 11.375 C-5.75837891 10.42947266 -5.76675781 9.48394531 -5.77539062 8.50976562 C-5.77861328 7.61064453 -5.78183594 6.71152344 -5.78515625 5.78515625 C-5.79039307 4.95250244 -5.79562988 4.11984863 -5.80102539 3.26196289 C-5.58053914 -0.52423642 -3.28697709 0.09335211 0 0 Z " fill="#191919" transform="translate(278.6875,282.6875)"/>
<path d="M0 0 C4.04191465 4.49101628 6.43674441 9.58984989 9 15 C10.32 14.01 11.64 13.02 13 12 C11.94124926 15.40312738 10.99097846 18.01353231 9 21 C8.34 21 7.68 21 7 21 C6.566875 19.96875 6.13375 18.9375 5.6875 17.875 C4.25087475 14.51603334 2.66578055 11.25223822 1 8 C0.67 12.29 0.34 16.58 0 21 C-0.99 20.67 -1.98 20.34 -3 20 C-2.69463301 16.85343097 -2.37951468 13.70791518 -2.0625 10.5625 C-1.97548828 9.66466797 -1.88847656 8.76683594 -1.79882812 7.84179688 C-1.71181641 6.98779297 -1.62480469 6.13378906 -1.53515625 5.25390625 C-1.456604 4.46314697 -1.37805176 3.6723877 -1.29711914 2.85766602 C-1 1 -1 1 0 0 Z " fill="#252525" transform="translate(65,283)"/>
<path d="M0 0 C0.79148438 -0.02578125 1.58296875 -0.0515625 2.3984375 -0.078125 C5.13730546 0.32549765 5.98149859 1.06039844 7.625 3.25 C8 5.8125 8 5.8125 7.625 8.25 C6.635 8.91 5.645 9.57 4.625 10.25 C4.625 8.27 4.625 6.29 4.625 4.25 C2.645 3.59 0.665 2.93 -1.375 2.25 C-1.42882106 4.87527189 -1.46858313 7.49944713 -1.5 10.125 C-1.51675781 10.87136719 -1.53351563 11.61773437 -1.55078125 12.38671875 C-1.5683959 14.34194461 -1.47820189 16.29742021 -1.375 18.25 C-0.715 18.91 -0.055 19.57 0.625 20.25 C-1.355 20.58 -3.335 20.91 -5.375 21.25 C-5.40388146 17.93751813 -5.42175799 14.62506833 -5.4375 11.3125 C-5.44587891 10.36697266 -5.45425781 9.42144531 -5.46289062 8.44726562 C-5.46611328 7.54814453 -5.46933594 6.64902344 -5.47265625 5.72265625 C-5.47789307 4.89000244 -5.48312988 4.05734863 -5.48852539 3.19946289 C-5.27370192 -0.48949504 -3.2181883 0.06248909 0 0 Z " fill="#4C4C4C" transform="translate(154.375,282.75)"/>
<path d="M0 0 C2.97 0.495 2.97 0.495 6 1 C6.60461477 3.64518963 7.02161673 5.78383269 6.75 8.5 C7.12614123 12.26141233 9.21409788 13.60282841 12 16 C12.99 16.66 13.98 17.32 15 18 C13.35 18.33 11.7 18.66 10 19 C9.60167969 18.50628906 9.20335937 18.01257813 8.79296875 17.50390625 C8.26316406 16.86324219 7.73335937 16.22257812 7.1875 15.5625 C6.66542969 14.92441406 6.14335937 14.28632813 5.60546875 13.62890625 C3.99165589 11.7451725 3.99165589 11.7451725 1 11 C-0.20272819 8.59454362 -0.10071472 7.05003047 -0.0625 4.375 C-0.05347656 3.55773437 -0.04445312 2.74046875 -0.03515625 1.8984375 C-0.02355469 1.27195312 -0.01195312 0.64546875 0 0 Z " fill="#E7E7E7" transform="translate(153,285)"/>
<path d="M0 0 C5.61 0 11.22 0 17 0 C16.67 0.66 16.34 1.32 16 2 C13.69 2 11.38 2 9 2 C8.94617894 4.62527189 8.90641687 7.24944713 8.875 9.875 C8.85824219 10.62136719 8.84148437 11.36773437 8.82421875 12.13671875 C8.8066041 14.09194461 8.89679811 16.04742021 9 18 C9.66 18.66 10.32 19.32 11 20 C10.67 20.33 10.34 20.66 10 21 C8.35 21 6.7 21 5 21 C5.33 14.73 5.66 8.46 6 2 C3.69 2 1.38 2 -1 2 C-0.67 1.34 -0.34 0.68 0 0 Z " fill="#393939" transform="translate(104,283)"/>
<path d="M0 0 C-0.33 5.61 -0.66 11.22 -1 17 C1.64 17.33 4.28 17.66 7 18 C5 20 5 20 2.6171875 20.1953125 C1.71226562 20.17210937 0.80734375 20.14890625 -0.125 20.125 C-1.73375 20.08375 -3.3425 20.0425 -5 20 C-4.67 13.73 -4.34 7.46 -4 1 C-4.66 0.67 -5.32 0.34 -6 0 C-4 -1 -4 -1 0 0 Z " fill="#1C1C1C" transform="translate(187,284)"/>
<path d="M0 0 C0.66 0 1.32 0 2 0 C2 6.93 2 13.86 2 21 C1.01 21.33 0.02 21.66 -1 22 C-1.33 17.38 -1.66 12.76 -2 8 C-3.32 9.32 -4.64 10.64 -6 12 C-4.43358249 7.69235185 -2.31663844 3.93828536 0 0 Z " fill="#242424" transform="translate(84,283)"/>
<path d="M0 0 C0.33 0 0.66 0 1 0 C1 0.721875 1 1.44375 1 2.1875 C2.54417657 6.5304966 6.07053045 7.89652541 10 10 C9.68762196 12.88949684 9.35661121 14.58633099 7.4375 16.8125 C3.8580787 18.55632063 0.95820158 18.19791008 -3 18 C-2.505 16.515 -2.505 16.515 -2 15 C0.64 15 3.28 15 6 15 C6 13.68 6 12.36 6 11 C4.25522367 9.42481549 4.25522367 9.42481549 2 8.25 C1.2575 7.82203125 0.515 7.3940625 -0.25 6.953125 C-0.8275 6.63859375 -1.405 6.3240625 -2 6 C-1.125 1.125 -1.125 1.125 0 0 Z " fill="#252525" transform="translate(357,286)"/>
<path d="M0 0 C3.13051597 2.72916777 3.90170097 4.32419415 4.5 8.4375 C3.92103132 12.56265185 2.53936964 14.74643266 0 18 C-0.66 17.67 -1.32 17.34 -2 17 C-1.34 16.34 -0.68 15.68 0 15 C0.39501229 12.66761933 0.39501229 12.66761933 0.375 10.0625 C0.40335938 9.18722656 0.43171875 8.31195313 0.4609375 7.41015625 C0.21255931 4.85989807 0.21255931 4.85989807 -1.86328125 3.1953125 C-4.46074464 1.74225254 -6.06260583 1.7740466 -9 2 C-9.99 2 -10.98 2 -12 2 C-7.75834686 -1.21337359 -5.10471173 -1.48500705 0 0 Z " fill="#232323" transform="translate(247,284)"/>
<path d="M0 0 C-0.33 6.6 -0.66 13.2 -1 20 C-2.32 19.67 -3.64 19.34 -5 19 C-4.505 10.09 -4.505 10.09 -4 1 C-4.66 0.67 -5.32 0.34 -6 0 C-4 -1 -4 -1 0 0 Z " fill="#313131" transform="translate(176,284)"/>
<path d="M0 0 C1.92572521 3.85145043 1.04883218 8.80043252 1 13 C4.63 13.66 8.26 14.32 12 15 C10 17 10 17 6.1875 17.5 C2.50071315 17.39926812 2.02083322 17.01779504 -1 14.4375 C-3.2996697 10.4849427 -3.66599565 8.49547066 -3 4 C-1.5 1.5625 -1.5 1.5625 0 0 Z " fill="#222222" transform="translate(334,287)"/>
<path d="M0 0 C0.66 0.33 1.32 0.66 2 1 C1.01 2.485 1.01 2.485 0 4 C-0.41577709 7.81129003 -0.5739829 10.09119374 1.5 13.375 C5.0150631 15.65979101 7.8345081 15.72230054 12 16 C10 18 10 18 6.1875 18.4375 C2.86352504 18.32851721 1.94099232 17.96189087 -1 16.0625 C-3.66887218 11.97578947 -3.85243301 8.75941766 -3 4 C-1.5 1.4375 -1.5 1.4375 0 0 Z " fill="#1C1C1C" transform="translate(425,286)"/>
<path d="M0 0 C0.66 0 1.32 0 2 0 C2 5.94 2 11.88 2 18 C4.64 18 7.28 18 10 18 C9.67 18.66 9.34 19.32 9 20 C5.7 20 2.4 20 -1 20 C-0.67 13.4 -0.34 6.8 0 0 Z " fill="#151515" transform="translate(408,284)"/>
<path d="M0 0 C0.66 0 1.32 0 2 0 C2 5.94 2 11.88 2 18 C4.64 18 7.28 18 10 18 C9.67 18.66 9.34 19.32 9 20 C5.7 20 2.4 20 -1 20 C-0.67 13.4 -0.34 6.8 0 0 Z " fill="#151515" transform="translate(392,284)"/>
<path d="M0 0 C0.66 0 1.32 0 2 0 C2 5.94 2 11.88 2 18 C4.64 18 7.28 18 10 18 C9.67 18.66 9.34 19.32 9 20 C5.7 20 2.4 20 -1 20 C-0.67 13.4 -0.34 6.8 0 0 Z " fill="#151515" transform="translate(258,284)"/>
<path d="M0 0 C1 2 1 2 0.5 5.375 C-0.24181433 9.08906224 -0.24181433 9.08906224 1 13 C4.3 13.66 7.6 14.32 11 15 C9 17 9 17 5.625 17.375 C2 17 2 17 -0.375 15.125 C-3.27618865 11.33113792 -3.32903237 8.77096942 -3 4 C-1.5 1.5625 -1.5 1.5625 0 0 Z " fill="#1F1F1F" transform="translate(234,287)"/>
<path d="M0 0 C0.66 0 1.32 0 2 0 C2.90375653 6.32629569 2.90375653 11.67370431 2 18 C2.99 18.33 3.98 18.66 5 19 C4.67 19.33 4.34 19.66 4 20 C2.35 20 0.7 20 -1 20 C-0.67 13.4 -0.34 6.8 0 0 Z " fill="#131313" transform="translate(126,284)"/>
<path d="M0 0 C0.66 0 1.32 0 2 0 C2 5.94 2 11.88 2 18 C2.66 18.33 3.32 18.66 4 19 C2.35 19.33 0.7 19.66 -1 20 C-0.67 13.4 -0.34 6.8 0 0 Z " fill="#0D0D0D" transform="translate(209,284)"/>
<path d="M0 0 C-0.42152344 0.48210937 -0.84304687 0.96421875 -1.27734375 1.4609375 C-1.82519531 2.09257812 -2.37304688 2.72421875 -2.9375 3.375 C-3.48277344 4.00148438 -4.02804688 4.62796875 -4.58984375 5.2734375 C-6.06958624 6.95632334 -6.06958624 6.95632334 -7 9 C-7.66 9 -8.32 9 -9 9 C-9 6.36 -9 3.72 -9 1 C-5.92677456 0.08941469 -3.19902639 -0.08886184 0 0 Z " fill="#292929" transform="translate(185,252)"/>
<path d="M0 0 C3.875 1.875 3.875 1.875 5 3 C5.36015175 8.40227629 5.35910997 11.52118671 2 16 C1.34 15.67 0.68 15.34 0 15 C0.350625 14.484375 0.70125 13.96875 1.0625 13.4375 C2.75326036 9.04152306 1.23753433 4.41976546 0 0 Z " fill="#191919" transform="translate(286,285)"/>
<path d="M0 0 C3.28145322 0.57407713 4.82242339 1.49432311 7.0625 3.9375 C9.01540467 6.04580822 10.55092135 7.3672809 13 9 C10.76953125 9.7734375 10.76953125 9.7734375 8 10 C5.76171875 8.1640625 5.76171875 8.1640625 3.6875 5.625 C2.99011719 4.79226563 2.29273438 3.95953125 1.57421875 3.1015625 C0 1 0 1 0 0 Z " fill="#151515" transform="translate(155,294)"/>
<path d="M0 0 C0.99 0.33 1.98 0.66 3 1 C2.67 6.61 2.34 12.22 2 18 C-0.83293634 15.16706366 -0.49317603 12.2427167 -0.6875 8.4375 C-0.73455078 7.73947266 -0.78160156 7.04144531 -0.83007812 6.32226562 C-0.93491375 4.55037178 -0.97276011 2.77478345 -1 1 C-0.67 0.67 -0.34 0.34 0 0 Z " fill="#4B4B4B" transform="translate(323,283)"/>
<path d="M0 0 C0.33 0 0.66 0 1 0 C1 5.28 1 10.56 1 16 C1.99 16.33 2.98 16.66 4 17 C2.02 17.33 0.04 17.66 -2 18 C-1.34 12.06 -0.68 6.12 0 0 Z " fill="#141414" transform="translate(151,286)"/>
<path d="M0 0 C0.66 0.99 1.32 1.98 2 3 C0.09598862 4.90401138 -1.33425686 5.93520439 -4.046875 6.19921875 C-6.03233273 6.1886578 -8.0169914 6.09915043 -10 6 C-9.67 5.01 -9.34 4.02 -9 3 C-6.36 3 -3.72 3 -1 3 C-0.67 2.01 -0.34 1.02 0 0 Z " fill="#4E4E4E" transform="translate(364,298)"/>
<path d="M0 0 C-0.99 0.495 -0.99 0.495 -2 1 C-2.31241455 3.71446979 -2.51336592 6.33909361 -2.625 9.0625 C-2.66367188 9.82111328 -2.70234375 10.57972656 -2.7421875 11.36132812 C-2.83673562 13.24047195 -2.91946756 15.12020336 -3 17 C-3.33 17 -3.66 17 -4 17 C-4 11.72 -4 6.44 -4 1 C-4.66 0.67 -5.32 0.34 -6 0 C-3.50907189 -1.24546405 -2.58919267 -0.7767578 0 0 Z " fill="#585858" transform="translate(187,284)"/>
<path d="M0 0 C1.62490954 -0.02698189 3.24994633 -0.04638757 4.875 -0.0625 C5.77992188 -0.07410156 6.68484375 -0.08570313 7.6171875 -0.09765625 C10 0 10 0 12 1 C11.67 1.99 11.34 2.98 11 4 C7.37 3.01 3.74 2.02 0 1 C0 0.67 0 0.34 0 0 Z " fill="#575757" transform="translate(274,283)"/>
<path d="M0 0 C3.63 0.33 7.26 0.66 11 1 C9 3 9 3 6.6171875 3.1953125 C5.71226562 3.17210937 4.80734375 3.14890625 3.875 3.125 C2.50988281 3.09792969 2.50988281 3.09792969 1.1171875 3.0703125 C0.41851562 3.04710937 -0.28015625 3.02390625 -1 3 C-0.67 2.01 -0.34 1.02 0 0 Z " fill="#343434" transform="translate(183,301)"/>
<path d="M0 0 C-0.99 1.485 -0.99 1.485 -2 3 C-3.093125 2.835 -4.18625 2.67 -5.3125 2.5 C-8.87525873 1.93281816 -8.87525873 1.93281816 -12 2 C-7.72424275 -1.23921004 -5.16347713 -1.11369115 0 0 Z " fill="#444444" transform="translate(247,284)"/>
<path d="M0 0 C3.6875 -0.25 3.6875 -0.25 7 0 C7 0.66 7 1.32 7 2 C3.7 2.66 0.4 3.32 -3 4 C-2.01 2.68 -1.02 1.36 0 0 Z " fill="#0E0E0E" transform="translate(221,313)"/>
<path d="M0 0 C0.33 0 0.66 0 1 0 C1 2.97 1 5.94 1 9 C1.99 9.33 2.98 9.66 4 10 C3.67 10.33 3.34 10.66 3 11 C1.35 11 -0.3 11 -2 11 C-1.34 7.37 -0.68 3.74 0 0 Z " fill="#2A2A2A" transform="translate(127,293)"/>
<path d="M0 0 C4.875 0.875 4.875 0.875 6 2 C6.25 4.4375 6.25 4.4375 6 7 C5.01 7.66 4.02 8.32 3 9 C3.0928125 7.6078125 3.0928125 7.6078125 3.1875 6.1875 C3.30894264 3.01604897 3.30894264 3.01604897 1.5 1.125 C1.005 0.75375 0.51 0.3825 0 0 Z " fill="#131313" transform="translate(156,284)"/>
<path d="M0 0 C0 0.99 0 1.98 0 3 C-3.63 3 -7.26 3 -11 3 C-8.89427904 -1.21144191 -4.11694326 -0.07767817 0 0 Z " fill="#555555" transform="translate(438,283)"/>
<path d="M0 0 C0.99 0 1.98 0 3 0 C3 2.64 3 5.28 3 8 C2.34 8 1.68 8 1 8 C1 6.02 1 4.04 1 2 C0.34 1.67 -0.32 1.34 -1 1 C-0.67 0.67 -0.34 0.34 0 0 Z " fill="#1B1B1B" transform="translate(346,293)"/>
<path d="M0 0 C-0.33 0.99 -0.66 1.98 -1 3 C-3.97 2.67 -6.94 2.34 -10 2 C-6.3558226 -0.4294516 -4.28758728 -0.16179575 0 0 Z " fill="#4B4B4B" transform="translate(348,283)"/>
</svg>
